<?xml version="1.0" encoding="UTF-8" standalone="no"?>
<!DOCTYPE svg PUBLIC "-//W3C//DTD SVG 1.1//EN" "http://www.w3.org/Graphics/SVG/1.1/DTD/svg11.dtd"
[
<!ATTLIST g
  xmlns:vectornator CDATA #FIXED "http://vectornator.io"
  vectornator:layerName CDATA #IMPLIED >
<!ATTLIST g
  xmlns:vectornator CDATA #FIXED "http://vectornator.io"
  vectornator:mask CDATA #IMPLIED >
<!ATTLIST text
  xmlns:vectornator CDATA #FIXED "http://vectornator.io"
  vectornator:width CDATA #IMPLIED >
<!ATTLIST text
  xmlns:vectornator CDATA #FIXED "http://vectornator.io"
  vectornator:text CDATA #IMPLIED >

<!ATTLIST path
  xmlns:vectornator CDATA #FIXED "http://vectornator.io"
  vectornator:blendMode CDATA #IMPLIED >
<!ATTLIST path
  xmlns:vectornator CDATA #FIXED "http://vectornator.io"
  vectornator:shadowColor CDATA #IMPLIED >
<!ATTLIST path
  xmlns:vectornator CDATA #FIXED "http://vectornator.io"
  vectornator:shadowOpacity CDATA #IMPLIED >
<!ATTLIST path
  xmlns:vectornator CDATA #FIXED "http://vectornator.io"
  vectornator:shadowRadius CDATA #IMPLIED >
<!ATTLIST path
  xmlns:vectornator CDATA #FIXED "http://vectornator.io"
  vectornator:shadowOffset CDATA #IMPLIED >
<!ATTLIST path
  xmlns:vectornator CDATA #FIXED "http://vectornator.io"
  vectornator:shadowAngle CDATA #IMPLIED >

<!ATTLIST image
  xmlns:vectornator CDATA #FIXED "http://vectornator.io"
  vectornator:blendMode CDATA #IMPLIED >
<!ATTLIST image
  xmlns:vectornator CDATA #FIXED "http://vectornator.io"
  vectornator:shadowColor CDATA #IMPLIED >
<!ATTLIST image
  xmlns:vectornator CDATA #FIXED "http://vectornator.io"
  vectornator:shadowOpacity CDATA #IMPLIED >
<!ATTLIST image
  xmlns:vectornator CDATA #FIXED "http://vectornator.io"
  vectornator:shadowRadius CDATA #IMPLIED >
<!ATTLIST image
  xmlns:vectornator CDATA #FIXED "http://vectornator.io"
  vectornator:shadowOffset CDATA #IMPLIED >
<!ATTLIST image
  xmlns:vectornator CDATA #FIXED "http://vectornator.io"
  vectornator:shadowAngle CDATA #IMPLIED >

<!ATTLIST g
  xmlns:vectornator CDATA #FIXED "http://vectornator.io"
  vectornator:blendMode CDATA #IMPLIED >
<!ATTLIST g
  xmlns:vectornator CDATA #FIXED "http://vectornator.io"
  vectornator:shadowColor CDATA #IMPLIED >
<!ATTLIST g
  xmlns:vectornator CDATA #FIXED "http://vectornator.io"
  vectornator:shadowOpacity CDATA #IMPLIED >
<!ATTLIST g
  xmlns:vectornator CDATA #FIXED "http://vectornator.io"
  vectornator:shadowRadius CDATA #IMPLIED >
<!ATTLIST g
  xmlns:vectornator CDATA #FIXED "http://vectornator.io"
  vectornator:shadowOffset CDATA #IMPLIED >
<!ATTLIST g
  xmlns:vectornator CDATA #FIXED "http://vectornator.io"
  vectornator:shadowAngle CDATA #IMPLIED >

<!ENTITY % SVG.filter.extra.content  "| feDropShadow" >
<!ELEMENT feDropShadow EMPTY>
<!ATTLIST feDropShadow
  xmlns:svg CDATA #FIXED "http://www.w3.org/Graphics/SVG/1.1/DTD/svg11.dtd"
  dx CDATA #IMPLIED>
<!ATTLIST feDropShadow
  xmlns:svg CDATA #FIXED "http://www.w3.org/Graphics/SVG/1.1/DTD/svg11.dtd"
  dy CDATA #IMPLIED>
<!ATTLIST feDropShadow
  xmlns:svg CDATA #FIXED "http://www.w3.org/Graphics/SVG/1.1/DTD/svg11.dtd"
  stdDeviation CDATA #IMPLIED>
<!ATTLIST feDropShadow
  xmlns:svg CDATA #FIXED "http://www.w3.org/Graphics/SVG/1.1/DTD/svg11.dtd"
  flood-opacity CDATA #IMPLIED>
<!ATTLIST feDropShadow
  xmlns:svg CDATA #FIXED "http://www.w3.org/Graphics/SVG/1.1/DTD/svg11.dtd"
  in CDATA #IMPLIED>
<!ATTLIST feDropShadow
  xmlns:svg CDATA #FIXED "http://www.w3.org/Graphics/SVG/1.1/DTD/svg11.dtd"
  result CDATA #IMPLIED>
<!ATTLIST feDropShadow
  xmlns:svg CDATA #FIXED "http://www.w3.org/Graphics/SVG/1.1/DTD/svg11.dtd"
  flood-color CDATA #IMPLIED>
]
>
<!-- Created with Vectornator (http://vectornator.io/) -->
<svg height="100%" stroke-miterlimit="10" style="fill-rule:nonzero;clip-rule:evenodd;stroke-linecap:round;stroke-linejoin:round;" version="1.1" viewBox="0 0 3370.82 2384.24" width="100%" xml:space="preserve" xmlns="http://www.w3.org/2000/svg" xmlns:vectornator="http://vectornator.io" xmlns:xlink="http://www.w3.org/1999/xlink">
<defs/>
<g id="Layer-1" vectornator:layerName="Layer 1">
<path d="M426.904 499.941C430.194 501.586 430.582 506.354 431.839 509.811C435.566 520.06 439.683 530.149 442.944 540.657C448.937 559.968 455.068 579.771 457.75 599.881C459.6 613.755 459.011 628 461.451 641.831C464.1 656.843 468.854 672.12 468.854 687.482C468.854 691.891 469.588 695.885 467.62 699.821" fill="none" fill-rule="evenodd" opacity="1" stroke="#111d9d" stroke-linecap="round" stroke-linejoin="round" stroke-width="14.6583"/>
<path d="M429.372 490.07C460.218 483.901 493.126 485.126 524.376 483.901C556.893 482.626 589.311 482.667 621.849 482.667C640.392 482.667 658.813 483.901 677.371 483.901C680.25 483.901 683.972 481.865 686.008 483.901C687.171 485.064 685.685 487.223 686.008 488.836C686.673 492.162 687.403 495.489 688.475 498.707C690.577 505.01 693.47 511.022 695.878 517.214C711.397 557.119 719.308 598.79 727.958 640.597C731.782 659.081 735.364 677.626 739.062 696.119C739.633 698.971 739.854 701.882 740.296 704.756C740.451 705.761 740.573 721.475 743.998 714.627" fill="none" fill-rule="evenodd" opacity="1" stroke="#111d9d" stroke-linecap="round" stroke-linejoin="round" stroke-width="14.6583"/>
<path d="M482.426 719.562C481.604 719.151 479.449 719.093 479.959 718.328C482.34 714.757 489.443 715.86 492.297 715.86C496.41 715.86 500.526 716.025 504.635 715.86C510.813 715.613 516.962 714.789 523.143 714.627C532.599 714.378 542.061 714.627 551.521 714.627C604.164 714.627 656.807 714.627 709.45 714.627C715.208 714.627 720.971 714.866 726.724 714.627C732.902 714.369 739.049 713.393 745.231 713.393C746.465 713.393 748.381 714.496 748.933 713.393C750.512 710.235 736.791 707.7 735.361 707.224" fill="none" fill-rule="evenodd" opacity="1" stroke="#111d9d" stroke-linecap="round" stroke-linejoin="round" stroke-width="14.6583"/>
<path d="M873.549 490.07C866.824 483.345 874.279 498.629 874.783 499.941C876.045 503.22 877.315 506.498 878.485 509.811C884.392 526.55 888.439 545.381 890.823 562.866C895.732 598.868 892.049 635.614 898.226 671.443C899.707 680.031 903.211 688.206 906.863 696.119C907.721 697.979 910.098 705.661 910.564 708.457C910.699 709.269 911.387 710.925 910.564 710.925C905.249 710.925 904.395 700.732 904.395 697.353" fill="none" fill-rule="evenodd" opacity="1" stroke="#111d9d" stroke-linecap="round" stroke-linejoin="round" stroke-width="14.6583"/>
<path d="M885.888 487.602C891.898 490.608 899.641 486.496 905.629 485.135C911.371 483.83 917.104 482.457 922.903 481.433C955.587 475.665 988.486 474.03 1021.61 474.03C1036.16 474.03 1050.31 473.702 1064.79 472.796C1069.1 472.527 1073.1 473.58 1077.13 471.563C1077.87 471.195 1075.46 471.363 1074.66 471.563C1043.53 479.346 1071.14 518.727 1075.9 535.722C1079.37 548.126 1083.51 560.336 1087 572.736C1098.81 614.707 1104.99 658.038 1117.85 699.821C1123.46 718.055 1126.48 733.909 1126.48 752.875C1126.48 754.932 1126.48 756.988 1126.48 759.044C1126.48 760.689 1126.48 762.334 1126.48 763.98C1126.48 765.213 1127.59 767.129 1126.48 767.681C1125.44 768.201 1124.84 766.036 1124.02 765.213C1121.31 762.511 1118.87 759.558 1115.38 757.81C1104.43 752.336 1089.06 749.644 1077.13 747.94C1053.63 744.583 1029.27 740.55 1005.57 739.303C989.551 738.46 973.489 739.303 957.45 739.303C951.692 739.303 945.929 739.053 940.176 739.303C936.455 739.465 932.758 740.01 929.072 740.537C916.837 742.285 918.428 744.238 927.838 744.238" fill="none" fill-rule="evenodd" opacity="1" stroke="#111d9d" stroke-linecap="round" stroke-linejoin="round" stroke-width="14.6583"/>
<path d="M1216.55 499.941C1222.16 502.742 1222.07 511.241 1223.96 517.214C1226.75 526.048 1228.55 535.202 1230.13 544.358C1231.54 552.555 1233.02 560.757 1233.83 569.035C1237.77 609.488 1236.29 650.588 1236.29 691.184C1236.29 702.7 1236.29 714.215 1236.29 725.731C1236.29 730.255 1236.29 734.779 1236.29 739.303C1236.29 740.537 1236.29 743.005 1236.29 743.005C1236.29 743.005 1236.33 733.003 1237.53 728.199" fill="none" fill-rule="evenodd" opacity="1" stroke="#9d1711" stroke-linecap="round" stroke-linejoin="round" stroke-width="14.6583"/>
<path d="M1216.55 495.005C1225.36 495.005 1239.68 490.221 1247.4 488.836C1266.32 485.44 1291.31 481.237 1310.32 480.199C1332.09 479.012 1353.92 479.704 1375.72 480.199C1390.52 480.536 1405.33 480.923 1420.13 481.433C1432.49 481.859 1444.85 482.954 1457.15 483.901C1461.33 484.222 1468.58 484.225 1471.96 487.602C1473.75 489.397 1472.63 498.394 1473.19 501.174C1474.16 506.008 1475.69 511.187 1476.89 515.98C1483.07 540.707 1485.25 564.639 1488 590.01C1489.65 605.277 1490.63 620.719 1494.16 635.662C1497.58 650.091 1502.73 664.162 1508.97 677.612C1515.89 692.511 1525.73 705.768 1532.41 720.796C1534.49 725.461 1541.4 742.3 1538.58 747.94C1536.2 752.708 1520.78 740.078 1518.84 739.303C1512.28 736.679 1504.91 737.539 1497.87 736.835C1487.59 735.807 1477.34 735.559 1467.02 734.368C1421.07 729.066 1373.81 729.934 1327.6 731.9C1306.99 732.777 1288.42 735.295 1268.37 739.303C1261.75 740.629 1255.05 742.099 1248.63 744.238C1247.4 744.65 1246.21 745.217 1244.93 745.472C1244.12 745.633 1242.46 744.65 1242.46 745.472C1242.46 746.392 1244.11 746.295 1244.93 746.706" fill="none" fill-rule="evenodd" opacity="1" stroke="#9d1711" stroke-linecap="round" stroke-linejoin="round" stroke-width="14.6583"/>
<path d="M1637.29 498.707C1642.87 498.707 1645.2 506.479 1647.16 511.045C1648.9 515.116 1650.69 519.181 1652.09 523.383C1653.99 529.064 1655.58 534.847 1657.03 540.657C1666.54 578.713 1665.69 615.492 1660.73 654.169C1659.72 662.017 1657.48 678.54 1657.03 687.482C1656.74 693.233 1657.67 699.033 1657.03 704.756C1656.66 708.039 1654.05 713.393 1655.8 713.393C1657.39 713.393 1659.19 706.902 1659.5 705.99" fill="none" fill-rule="evenodd" opacity="1" stroke="#111d9d" stroke-linecap="round" stroke-linejoin="round" stroke-width="14.6583"/>
<path d="M1624.95 483.901C1631.07 479.818 1639.95 481.001 1647.16 480.199C1654.16 479.422 1661.15 478.584 1668.13 477.732C1689.05 475.18 1710.04 473.064 1731.06 471.563C1754.06 469.919 1777.11 468.842 1800.15 467.861C1826.87 466.724 1853.68 467.898 1880.35 466.627C1884.07 466.45 1887.74 465.641 1891.46 465.393C1895.15 465.147 1899.6 463.173 1902.56 465.393C1906.56 468.391 1902.49 479.981 1903.79 483.901C1905.54 489.136 1908.99 493.652 1911.2 498.707C1919.66 518.042 1924.84 539.395 1927.24 560.398C1929.98 584.425 1928.88 608.022 1933.41 631.96C1939.08 661.947 1953.84 687.595 1964.25 715.86C1967.27 724.053 1969.55 732.131 1971.66 740.537C1971.97 741.799 1973.61 743.156 1972.89 744.238C1972.84 744.307 1964.18 743.334 1960.55 743.005C1958.06 742.778 1955.62 742.124 1953.15 741.771C1934.67 739.131 1916.24 739.133 1897.63 738.069C1880.38 737.083 1863.08 737.195 1845.8 736.835C1802.59 735.935 1759.5 733.134 1716.25 733.134C1707.62 733.134 1698.98 733.134 1690.34 733.134C1679.02 733.134 1668.21 734.368 1657.03 734.368C1655.8 734.368 1659.5 734.245 1660.73 734.368C1663.62 734.657 1666.49 735.19 1669.37 735.602" fill="none" fill-rule="evenodd" opacity="1" stroke="#111d9d" stroke-linecap="round" stroke-linejoin="round" stroke-width="14.6583"/>
<path d="M2046.92 499.941C2053.4 509.67 2055.27 521.001 2058.02 532.02C2066.87 567.398 2076.27 602.114 2082.7 638.129C2084.46 647.98 2086.59 657.789 2087.64 667.741C2088.24 673.482 2087.84 679.335 2088.87 685.015C2089.39 687.876 2088.05 691.595 2090.1 693.651C2092.37 695.916 2097.13 694.697 2099.97 696.119" fill="none" fill-rule="evenodd" opacity="1" stroke="#9d1711" stroke-linecap="round" stroke-linejoin="round" stroke-width="14.6583"/>
<path d="M2049.39 471.563C2049.39 464.271 2062.89 466.627 2066.66 466.627C2072.83 466.627 2079 466.627 2085.17 466.627C2111.33 466.627 2136.83 468.324 2162.9 470.329C2181.39 471.751 2199.88 472.796 2218.42 472.796C2230.07 472.796 2243.92 470.877 2255.44 472.796C2260.79 473.689 2270.03 502.66 2271.48 507.344C2284.09 548.34 2294.02 590.405 2304.79 631.96C2310.18 652.775 2311.58 674.84 2319.59 694.885C2322.41 701.936 2325.25 708.908 2328.23 715.86C2328.74 717.056 2330.63 718.98 2329.47 719.562C2328.14 720.225 2327.09 717.757 2325.76 717.094C2322.96 715.693 2320.13 714.293 2317.13 713.393C2307.75 710.58 2297.21 709.301 2287.52 708.457C2238.85 704.225 2189.52 705.964 2140.69 703.522C2121.76 702.575 2102.86 700.722 2083.93 699.821C2078.18 699.547 2072.42 699.821 2066.66 699.821C2065.84 699.821 2063.82 699.085 2064.19 699.821C2064.86 701.147 2066.66 701.466 2067.89 702.288" fill="none" fill-rule="evenodd" opacity="1" stroke="#9d1711" stroke-linecap="round" stroke-linejoin="round" stroke-width="14.6583"/>
<path d="M2404.73 499.941C2404.73 490.961 2414.12 508.86 2414.6 509.811C2417.86 516.33 2419.22 523.665 2420.77 530.786C2424.91 549.857 2428.83 568.797 2434.34 587.542C2438.05 600.15 2442.38 612.638 2447.91 624.557C2452.56 634.567 2458.54 643.955 2462.72 654.169C2471.63 675.947 2474.72 697.918 2478.76 720.796C2481.21 734.705 2484.08 752.875 2500.97 752.875" fill="none" fill-rule="evenodd" opacity="1" stroke="#9d1711" stroke-linecap="round" stroke-linejoin="round" stroke-width="14.6583"/>
<path d="M2407.2 502.408C2406.37 501.586 2404.21 500.981 2404.73 499.941C2405.48 498.441 2411.74 501.131 2412.13 501.174C2414.58 501.447 2417.07 501.35 2419.53 501.174C2434.37 500.115 2449.2 498.083 2463.95 496.239C2478.69 494.396 2493.54 493.464 2508.37 492.538C2516.61 492.023 2529.44 490.404 2537.98 491.304C2548.43 492.403 2557.82 497.915 2567.59 501.174C2575.92 503.949 2585.95 506.514 2593.5 511.045C2594.93 511.899 2598.84 516.266 2597.21 518.448C2592.36 524.912 2587.33 523.789 2587.33 533.254C2587.33 536.33 2586.94 537.815 2588.57 540.657C2593.14 548.652 2601.68 554.549 2605.84 562.866C2608.58 568.334 2610.44 574.232 2612.01 580.139C2616.82 598.171 2616.66 617.274 2619.41 635.662C2622.38 655.399 2627.22 674.986 2634.22 693.651C2639.52 707.783 2646.32 721.974 2649.03 736.835C2649.13 737.425 2649.9 747.86 2649.03 749.174C2646.68 752.698 2643.07 748.157 2641.62 746.706C2635.15 740.231 2621.82 737.62 2613.25 735.602C2593.5 730.957 2572.98 731.179 2552.79 731.9C2534.28 732.561 2516.72 736.874 2498.5 739.303C2492.21 740.141 2483.54 742.312 2477.52 739.303" fill="none" fill-rule="evenodd" opacity="1" stroke="#9d1711" stroke-linecap="round" stroke-linejoin="round" stroke-width="14.6583"/>
<path d="M2732.7 520.319C2732.19 519.299 2732.31 517.26 2731.17 517.26C2730.15 517.26 2731.17 519.299 2731.17 520.319C2731.17 522.868 2730.75 525.452 2731.17 527.966C2733.83 543.892 2738.26 559.158 2740.35 575.377C2744.54 607.867 2746.42 640.648 2749.53 673.259C2749.92 677.351 2750.47 681.426 2751.06 685.495C2751.6 689.334 2756.47 702.988 2754.11 706.906C2753.17 708.483 2751.33 709.605 2749.53 709.965C2742.22 711.427 2741.05 698.159 2740.35 694.671" fill="none" fill-rule="evenodd" opacity="1" stroke="#111d9d" stroke-linecap="round" stroke-linejoin="round" stroke-width="14.6583"/>
<path d="M2709.76 495.848C2722.41 487.419 2743.12 491.785 2757.17 492.79C2765.32 493.372 2773.48 493.866 2781.64 494.319C2826.55 496.814 2871.38 498.602 2916.23 501.966C2936.21 503.464 2955.88 503.495 2975.88 503.495C2977.92 503.495 2980.86 501.799 2982 503.495C2983.02 505.025 2979.76 506.44 2978.94 508.084C2978.22 509.526 2977.8 511.108 2977.41 512.672C2975.33 520.982 2974.35 528.594 2974.35 537.142C2974.35 563.484 2982.45 586.908 2989.64 612.083C2995.18 631.468 3001.65 651.507 3003.41 671.73C3004.33 682.396 3002.84 693.157 3003.41 703.848C3003.86 712.504 3003.49 724.208 3004.94 732.906C3005.12 734.031 3007.27 735.159 3006.47 735.965C3004.85 737.577 3002.51 733.627 3000.35 732.906C2993.24 730.537 2983.06 727.747 2975.88 726.789C2965.25 725.372 2954.45 725.997 2943.76 725.259C2902.47 722.412 2861.1 719.83 2819.88 716.083C2801.03 714.369 2782.2 712.147 2763.29 711.495C2753.61 711.161 2743.92 711.495 2734.23 711.495C2732.19 711.495 2729.56 710.053 2728.11 711.495C2727.09 712.514 2729.88 713.909 2731.17 714.553C2733.05 715.493 2735.23 715.671 2737.29 716.083C2740.33 716.691 2743.41 717.102 2746.47 717.612" fill="none" fill-rule="evenodd" opacity="1" stroke="#111d9d" stroke-linecap="round" stroke-linejoin="round" stroke-width="14.6583"/>
<path d="M981.532 1043.38C982.042 1042.36 982.43 1039.37 983.062 1040.32C984.504 1042.48 984.126 1045.41 984.591 1047.96C985.146 1051.01 985.582 1054.09 986.121 1057.14C987.111 1062.75 987.985 1068.39 989.179 1073.96C993.455 1093.92 998.698 1113.65 1002.94 1133.61C1012.38 1177.98 1020.67 1222.74 1032 1266.67C1036.97 1285.92 1044.24 1306.32 1044.24 1326.32C1044.24 1332.31 1045.3 1347.02 1036.59 1333.96" fill="none" fill-rule="evenodd" opacity="1" stroke="#111d9d" stroke-linecap="round" stroke-linejoin="round" stroke-width="14.6583"/>
<path d="M986.121 1047.96C981.66 1039.04 1006.48 1044.22 1010.59 1044.91C1035.1 1048.99 1060.73 1051.42 1085.53 1052.55C1112.52 1053.78 1139.68 1052.3 1166.59 1051.02C1201.13 1049.38 1236.12 1051.12 1270.59 1052.55C1306.68 1054.06 1343.17 1052.59 1379.18 1051.02C1403.61 1049.96 1428.15 1050.47 1452.59 1049.49C1505.19 1047.39 1557.54 1039.45 1610.12 1037.26C1677.79 1034.44 1745.76 1035.73 1813.53 1035.73C1839.53 1035.73 1865.53 1035.73 1891.53 1035.73C1902.21 1035.73 1914.61 1037.49 1925.18 1035.73C1929.32 1035.04 1933.23 1033.09 1937.41 1032.67C1952.68 1031.14 1968.01 1029.61 1983.29 1028.08C1987.38 1027.67 1991.47 1027.23 1995.53 1026.55C1997.54 1026.22 2001.65 1026.55 2001.65 1026.55C2001.65 1026.55 1999.31 1025.83 1998.59 1026.55C1997.87 1027.27 1998.34 1028.62 1998.59 1029.61C1999.95 1035.05 1999.78 1030.8 2003.18 1034.2C2007.36 1038.38 2006.79 1046.03 2009.29 1051.02C2012.65 1057.73 2017.55 1063.12 2021.53 1069.38C2025.57 1075.73 2028.29 1082.85 2032.23 1089.26C2043.92 1108.25 2055.94 1127.48 2065.88 1147.38C2074.79 1165.19 2076.65 1185.76 2084.23 1203.96C2090.43 1218.84 2099.17 1232.78 2107.18 1246.79C2114.7 1259.96 2117.27 1274.62 2124 1288.08C2125.07 1290.23 2129.96 1301.32 2128.59 1303.37C2126.28 1306.83 2114.71 1304.9 2111.76 1304.9C2097.49 1304.9 2083.21 1304.9 2068.94 1304.9C2038.14 1304.9 2007.88 1309.74 1977.18 1311.02C1958.82 1311.79 1940.47 1311.82 1922.12 1312.55C1826.19 1316.39 1730.62 1327.59 1634.59 1330.9C1580.54 1332.77 1526.51 1334.86 1472.47 1337.02C1446.42 1338.06 1420.5 1342.05 1394.47 1343.14C1372.03 1344.07 1349.61 1343.6 1327.18 1344.67C1306.38 1345.66 1285.3 1344.67 1264.47 1344.67C1219.61 1344.67 1174.75 1344.67 1129.88 1344.67C1115.11 1344.67 1098.63 1342.58 1084 1344.67C1080.07 1345.23 1077.43 1346.89 1073.3 1346.2C1065.44 1344.89 1056.7 1341.61 1048.83 1341.61C1046.79 1341.61 1043.62 1339.79 1042.71 1341.61C1042.2 1342.63 1043.73 1343.65 1044.24 1344.67" fill="none" fill-rule="evenodd" opacity="1" stroke="#111d9d" stroke-linecap="round" stroke-linejoin="round" stroke-width="14.6583"/>
<path d="M1238.47 1064.79C1248.57 1079.93 1251.69 1103.05 1256.83 1119.85C1269.08 1159.94 1283.87 1201.48 1285.88 1243.73C1286.65 1259.73 1287.11 1275.2 1285.88 1291.14C1285.65 1294.23 1284.64 1297.23 1284.35 1300.32C1283.94 1304.89 1284.35 1309.49 1284.35 1314.08C1284.35 1315.1 1284.35 1312.04 1284.35 1311.02" fill="none" fill-rule="evenodd" opacity="1" stroke="#111d9d" stroke-linecap="round" stroke-linejoin="round" stroke-width="14.6583"/>
<path d="M1516.82 1055.61C1516.82 1076.62 1532.15 1097.75 1539.77 1116.79C1554.43 1153.45 1564.24 1185.82 1564.24 1225.37C1564.24 1243.71 1563.13 1262.39 1567.29 1280.43C1568.6 1286.1 1571.3 1291.47 1571.88 1297.26C1572.14 1299.79 1571.88 1302.36 1571.88 1304.9C1571.88 1305.92 1571.43 1308.87 1571.88 1307.96C1573.29 1305.15 1574.94 1299.08 1574.94 1295.73" fill="none" fill-rule="evenodd" opacity="1" stroke="#111d9d" stroke-linecap="round" stroke-linejoin="round" stroke-width="14.6583"/>
<path d="M1793.65 1044.91C1793.14 1043.89 1793.26 1041.85 1792.12 1041.85C1791.1 1041.85 1791.97 1043.9 1792.12 1044.91C1792.49 1047.48 1792.93 1050.05 1793.65 1052.55C1794.98 1057.2 1796.83 1061.69 1798.24 1066.32C1803.64 1084.07 1808.38 1102.02 1813.53 1119.85C1817.07 1132.09 1821.39 1144.13 1824.24 1156.55C1827.01 1168.64 1828.49 1180.99 1830.35 1193.26C1832.06 1204.45 1833.69 1215.65 1834.94 1226.9C1837.99 1254.3 1840.81 1278.4 1853.29 1303.37C1856.28 1309.34 1858.26 1309.86 1859.41 1315.61C1859.61 1316.61 1858.39 1318.67 1859.41 1318.67C1861.81 1318.67 1860.94 1297.73 1860.94 1295.73" fill="none" fill-rule="evenodd" opacity="1" stroke="#111d9d" stroke-linecap="round" stroke-linejoin="round" stroke-width="14.6583"/>
<path d="M671.063 731.377C672.93 735.11 676.966 737.065 678.71 740.553C679.65 742.433 679.299 744.791 680.24 746.671C689.771 765.735 705.14 785.009 721.533 798.671C734.916 809.823 751.154 818.522 765.886 827.729C782.378 838.037 799.542 848.5 817.886 855.259C827.417 858.77 837.478 860.754 846.945 864.435C866.969 872.223 887.437 879.814 908.121 885.847C945.426 896.727 983.379 903.813 1019.77 917.964C1048.96 929.318 1075.23 936.929 1093.18 963.847C1098.31 971.547 1102.46 979.451 1105.41 988.317C1106.28 990.922 1107.81 993.301 1108.47 995.964C1108.72 996.953 1107.45 999.023 1108.47 999.023C1109.61 999.023 1110.63 996.913 1110 995.964C1109.39 995.038 1092.7 988.079 1090.12 986.788C1080.23 981.841 1073.4 974.651 1065.65 966.905C1063.61 964.866 1059.53 963.672 1059.53 960.788C1059.53 956.893 1067.15 961.658 1071.77 962.317C1078.64 963.298 1087.97 962.766 1094.71 962.317C1104.62 961.656 1113.83 959.258 1123.77 959.258C1125.41 959.258 1131.41 958.177 1131.41 962.317C1131.41 963.172 1113.83 971.183 1111.53 973.023C1109.28 974.825 1107.72 977.41 1105.41 979.141C1102.22 981.538 1097.9 982.861 1094.71 985.258C1093.55 986.123 1093.09 988.317 1091.65 988.317C1089.55 988.317 1091.38 983.881 1090.12 982.199C1087.8 979.108 1087.13 979.174 1084 977.611" fill="none" fill-rule="evenodd" opacity="1" stroke="#111d9d" stroke-linecap="round" stroke-linejoin="round" stroke-width="14.6583"/>
<path d="M1071.77 774.2C1071.77 773.181 1072.79 771.141 1071.77 771.141C1068 771.141 1073.15 781.514 1073.3 781.847C1076.47 789.262 1080.42 796.087 1084 803.259C1092.64 820.537 1102.95 834.627 1119.18 846.082C1126.89 851.528 1138.13 856.036 1146.71 859.847C1165.71 868.294 1185.52 876.512 1203.3 887.376C1222.65 899.206 1238.85 915.438 1258.35 927.141C1280.04 940.15 1306.49 946.6 1325.65 963.847C1334.2 971.543 1341.88 981.605 1350.12 989.846C1354.74 994.472 1367.33 1002.86 1370 1008.2C1370.66 1009.51 1368.28 1017.38 1366.94 1017.38C1364.84 1017.38 1366.9 1012.74 1365.41 1011.26C1361.93 1007.78 1352.95 1003.95 1348.59 1002.08C1339.23 998.072 1329.06 995.187 1319.53 991.376C1318.47 990.953 1317.58 990.123 1316.47 989.846C1315.48 989.599 1313.41 990.866 1313.41 989.846C1313.41 988.707 1315.67 989.123 1316.47 988.317C1317.28 987.511 1317.49 986.278 1318 985.258C1323.13 975.002 1351.21 977.611 1360.83 977.611C1361.83 977.611 1373.59 977.611 1374.59 977.611C1377.14 977.611 1382.24 975.062 1382.24 977.611C1382.24 979.953 1377.41 981.23 1376.12 982.199C1369.35 987.28 1364.62 992.969 1360.83 1000.55" fill="none" fill-rule="evenodd" opacity="1" stroke="#111d9d" stroke-linecap="round" stroke-linejoin="round" stroke-width="14.6583"/>
<path d="M1784.47 748.2C1784.47 739.817 1783.08 759.155 1782.94 760.436C1781.9 769.831 1781.86 777.306 1778.35 786.435C1772.39 801.929 1763.84 815.838 1756.94 830.788C1750.3 845.17 1750.28 864.983 1738.59 876.67C1726.12 889.142 1708.11 892.421 1692.71 899.612C1677.82 906.556 1662.92 914.306 1649.88 924.082C1648.06 925.45 1645.38 925.529 1643.77 927.141C1640.22 930.687 1642.95 936.606 1642.24 940.905C1639.43 957.762 1630 972.311 1630 989.846C1630 995.614 1629.05 1002.52 1630 1008.2C1630.11 1008.88 1633.02 1018.91 1631.53 1018.91C1630.59 1018.91 1628.92 1010.62 1628.47 1009.73C1626.29 1005.38 1621.9 1001.5 1617.77 999.023C1612.21 995.687 1604.91 994.673 1599.41 991.376C1598.18 990.634 1597.51 989.182 1596.35 988.317C1595.44 987.633 1592.49 987.594 1593.29 986.788C1596.17 983.91 1606.61 985.258 1610.12 985.258C1622.86 985.258 1635.61 985.258 1648.35 985.258C1651.71 985.258 1660.53 985.14 1660.59 985.258C1661.87 987.813 1643.4 993.356 1640.71 994.435C1639.2 995.038 1620.83 1006.68 1622.35 1008.2C1623.16 1009.01 1624.39 1007.18 1625.41 1006.67" fill="none" fill-rule="evenodd" opacity="1" stroke="#111d9d" stroke-linecap="round" stroke-linejoin="round" stroke-width="14.6583"/>
<path d="M2792.35 728.318C2782.54 728.318 2782.96 738.574 2778.58 745.142C2769.18 759.249 2758.14 771.122 2744.94 781.847C2729.29 794.562 2711.3 803.072 2694.47 813.965C2660.17 836.158 2627.37 857.07 2587.41 867.494C2541.92 879.361 2494.87 886.456 2449.76 899.612C2431.94 904.809 2414.69 911.696 2396.23 914.906C2384.08 917.018 2371.78 918.132 2359.53 919.494C2325.55 923.27 2291.13 921.071 2257.06 922.553C2218.04 924.249 2179.74 934.155 2140.82 936.317C2122.1 937.357 2100.94 935.435 2082.7 940.905C2073.94 943.535 2066.71 948.432 2058.23 951.611C2051.65 954.082 2043.58 955.886 2036.82 957.729C2028.98 959.867 2013.18 961.206 2006.23 965.376C2005.26 965.962 2005.51 967.629 2004.71 968.435C2003.32 969.816 1997.45 972.639 1995.53 973.023C1986.76 974.777 1974.4 974.381 1966.47 979.141C1958.27 984.062 1955.45 991.765 1949.65 999.023C1948.05 1001.01 1945.33 1001.81 1943.53 1003.61C1939.03 1008.11 1936.07 1015.88 1928.23 1014.32C1919.28 1012.53 1910.27 994.461 1908.35 986.788C1908.1 985.778 1905.27 982.22 1906.82 980.67C1907.59 979.9 1916.78 980.67 1917.53 980.67C1928.38 980.67 1938.76 979.141 1949.65 979.141C1952.2 979.141 1954.82 978.522 1957.29 979.141C1959.08 979.586 1960.14 981.618 1961.88 982.199C1964.82 983.18 1968.18 982.577 1971.06 983.729C1972.12 984.152 1974.63 984.239 1974.12 985.258C1973.15 987.195 1965.34 987.932 1963.41 988.317C1956.53 989.693 1948.54 993.349 1942 995.964C1938.74 997.266 1934.63 996.932 1932.82 1000.55C1932.37 1001.46 1932.58 1002.62 1932.82 1003.61C1933.1 1004.72 1934.35 1007.81 1934.35 1006.67C1934.35 1000.05 1913.27 991.376 1934.35 991.376" fill="none" fill-rule="evenodd" opacity="1" stroke="#111d9d" stroke-linecap="round" stroke-linejoin="round" stroke-width="14.6583"/>
</g>
</svg>
