<?xml version="1.0" encoding="UTF-8" standalone="no"?>
<!DOCTYPE svg PUBLIC "-//W3C//DTD SVG 1.1//EN" "http://www.w3.org/Graphics/SVG/1.1/DTD/svg11.dtd"
[
<!ATTLIST g
  xmlns:vectornator CDATA #FIXED "http://vectornator.io"
  vectornator:layerName CDATA #IMPLIED >
<!ATTLIST g
  xmlns:vectornator CDATA #FIXED "http://vectornator.io"
  vectornator:mask CDATA #IMPLIED >
<!ATTLIST text
  xmlns:vectornator CDATA #FIXED "http://vectornator.io"
  vectornator:width CDATA #IMPLIED >
<!ATTLIST text
  xmlns:vectornator CDATA #FIXED "http://vectornator.io"
  vectornator:text CDATA #IMPLIED >

<!ATTLIST path
  xmlns:vectornator CDATA #FIXED "http://vectornator.io"
  vectornator:blendMode CDATA #IMPLIED >
<!ATTLIST path
  xmlns:vectornator CDATA #FIXED "http://vectornator.io"
  vectornator:shadowColor CDATA #IMPLIED >
<!ATTLIST path
  xmlns:vectornator CDATA #FIXED "http://vectornator.io"
  vectornator:shadowOpacity CDATA #IMPLIED >
<!ATTLIST path
  xmlns:vectornator CDATA #FIXED "http://vectornator.io"
  vectornator:shadowRadius CDATA #IMPLIED >
<!ATTLIST path
  xmlns:vectornator CDATA #FIXED "http://vectornator.io"
  vectornator:shadowOffset CDATA #IMPLIED >
<!ATTLIST path
  xmlns:vectornator CDATA #FIXED "http://vectornator.io"
  vectornator:shadowAngle CDATA #IMPLIED >

<!ATTLIST image
  xmlns:vectornator CDATA #FIXED "http://vectornator.io"
  vectornator:blendMode CDATA #IMPLIED >
<!ATTLIST image
  xmlns:vectornator CDATA #FIXED "http://vectornator.io"
  vectornator:shadowColor CDATA #IMPLIED >
<!ATTLIST image
  xmlns:vectornator CDATA #FIXED "http://vectornator.io"
  vectornator:shadowOpacity CDATA #IMPLIED >
<!ATTLIST image
  xmlns:vectornator CDATA #FIXED "http://vectornator.io"
  vectornator:shadowRadius CDATA #IMPLIED >
<!ATTLIST image
  xmlns:vectornator CDATA #FIXED "http://vectornator.io"
  vectornator:shadowOffset CDATA #IMPLIED >
<!ATTLIST image
  xmlns:vectornator CDATA #FIXED "http://vectornator.io"
  vectornator:shadowAngle CDATA #IMPLIED >

<!ATTLIST g
  xmlns:vectornator CDATA #FIXED "http://vectornator.io"
  vectornator:blendMode CDATA #IMPLIED >
<!ATTLIST g
  xmlns:vectornator CDATA #FIXED "http://vectornator.io"
  vectornator:shadowColor CDATA #IMPLIED >
<!ATTLIST g
  xmlns:vectornator CDATA #FIXED "http://vectornator.io"
  vectornator:shadowOpacity CDATA #IMPLIED >
<!ATTLIST g
  xmlns:vectornator CDATA #FIXED "http://vectornator.io"
  vectornator:shadowRadius CDATA #IMPLIED >
<!ATTLIST g
  xmlns:vectornator CDATA #FIXED "http://vectornator.io"
  vectornator:shadowOffset CDATA #IMPLIED >
<!ATTLIST g
  xmlns:vectornator CDATA #FIXED "http://vectornator.io"
  vectornator:shadowAngle CDATA #IMPLIED >

<!ENTITY % SVG.filter.extra.content  "| feDropShadow" >
<!ELEMENT feDropShadow EMPTY>
<!ATTLIST feDropShadow
  xmlns:svg CDATA #FIXED "http://www.w3.org/Graphics/SVG/1.1/DTD/svg11.dtd"
  dx CDATA #IMPLIED>
<!ATTLIST feDropShadow
  xmlns:svg CDATA #FIXED "http://www.w3.org/Graphics/SVG/1.1/DTD/svg11.dtd"
  dy CDATA #IMPLIED>
<!ATTLIST feDropShadow
  xmlns:svg CDATA #FIXED "http://www.w3.org/Graphics/SVG/1.1/DTD/svg11.dtd"
  stdDeviation CDATA #IMPLIED>
<!ATTLIST feDropShadow
  xmlns:svg CDATA #FIXED "http://www.w3.org/Graphics/SVG/1.1/DTD/svg11.dtd"
  flood-opacity CDATA #IMPLIED>
<!ATTLIST feDropShadow
  xmlns:svg CDATA #FIXED "http://www.w3.org/Graphics/SVG/1.1/DTD/svg11.dtd"
  in CDATA #IMPLIED>
<!ATTLIST feDropShadow
  xmlns:svg CDATA #FIXED "http://www.w3.org/Graphics/SVG/1.1/DTD/svg11.dtd"
  result CDATA #IMPLIED>
<!ATTLIST feDropShadow
  xmlns:svg CDATA #FIXED "http://www.w3.org/Graphics/SVG/1.1/DTD/svg11.dtd"
  flood-color CDATA #IMPLIED>
]
>
<!-- Created with Vectornator (http://vectornator.io/) -->
<svg height="100%" stroke-miterlimit="10" style="fill-rule:nonzero;clip-rule:evenodd;stroke-linecap:round;stroke-linejoin:round;" version="1.1" viewBox="0 0 3370.82 2384.24" width="100%" xml:space="preserve" xmlns="http://www.w3.org/2000/svg" xmlns:vectornator="http://vectornator.io" xmlns:xlink="http://www.w3.org/1999/xlink">
<defs/>
<clipPath id="ArtboardFrame">
<rect height="2384.24" width="3370.82" x="0" y="0"/>
</clipPath>
<g clip-path="url(#ArtboardFrame)" id="Layer-1" vectornator:layerName="Layer 1">
<path d="M1087.96 801.93C1087.96 800.234 1087.14 798.639 1086.73 796.994C1086.53 796.196 1086.73 793.704 1086.73 794.527C1086.73 802.355 1089.17 809.166 1090.43 816.736C1092.32 828.092 1092.24 839.927 1094.13 851.283C1094.7 854.71 1097.18 857.872 1097.83 861.153C1098.94 866.69 1096.73 872.891 1097.83 878.427C1098.71 882.791 1100.3 886.294 1100.3 890.765C1100.3 893.267 1101.18 895.692 1101.53 898.168C1102.65 905.967 1101.53 914.968 1101.53 922.845C1101.53 941.352 1101.53 959.86 1101.53 978.367C1101.53 986.887 1102.31 995.802 1101.53 1004.28C1100.48 1015.85 1098.99 1027.3 1097.83 1038.82C1096.26 1054.51 1097.83 1071.18 1097.83 1086.94C1097.83 1109.6 1099.88 1133.48 1097.83 1156.04C1096.71 1168.36 1095.25 1180.7 1094.13 1193.05C1092.61 1209.78 1095.42 1226.89 1094.13 1243.64C1093.72 1249.03 1092.08 1254.29 1091.66 1259.68C1090.15 1279.3 1093.3 1299.29 1091.66 1318.9C1091.05 1326.33 1089.87 1333.69 1089.2 1341.11C1087.74 1357.14 1091.66 1372.33 1091.66 1388C1091.66 1427.32 1091.48 1466.31 1095.37 1505.21C1097.5 1526.52 1095.37 1549.16 1095.37 1570.6C1095.37 1589.93 1095.37 1609.26 1095.37 1628.59C1095.37 1636.82 1094.01 1646.38 1095.37 1654.5C1096.09 1658.86 1096.6 1662.29 1096.6 1666.84" fill="none" fill-rule="evenodd" opacity="1" stroke="#111d9d" stroke-linecap="round" stroke-linejoin="round" stroke-width="10.6299"/>
<path d="M1084.26 794.527C1093.15 785.635 1120.09 793.918 1131.15 795.761C1140.21 797.271 1151.52 798.314 1160.76 796.994C1163.72 796.571 1166.44 795.019 1169.4 794.527C1176.57 793.332 1184.48 795.951 1191.6 794.527C1195.79 793.69 1199.76 792.896 1203.94 792.059C1208.37 791.173 1213.46 792.28 1217.51 793.293C1225.8 795.364 1241.17 792.229 1249.59 790.825C1260.97 788.929 1271.26 784.656 1282.91 784.656C1284.28 784.656 1289.21 783.92 1290.31 784.656C1294.8 787.652 1289.08 796.012 1289.08 799.462C1289.08 815.525 1288.67 831.77 1291.54 847.581C1294.6 864.372 1294.09 884.846 1292.78 901.87C1292.39 906.858 1290.73 911.689 1290.31 916.676C1288.71 935.925 1289.22 955.362 1287.84 974.665C1285.14 1012.57 1277.87 1050.28 1275.5 1088.18C1274.45 1105.04 1272.86 1121.9 1271.8 1138.76C1270.93 1152.75 1271.57 1166.75 1270.57 1180.71C1269.42 1196.77 1263.37 1211.73 1261.93 1227.6C1260.97 1238.23 1262.01 1249.25 1263.17 1259.68C1264.28 1269.69 1263.17 1280.45 1263.17 1290.53C1263.17 1315.92 1260.35 1341.66 1263.17 1367.02C1265.67 1389.57 1262.73 1413.79 1260.7 1436.12C1259.45 1449.83 1260.7 1464.29 1260.7 1478.07C1260.7 1492.58 1259.46 1506.73 1259.46 1521.25C1259.46 1536.06 1259.46 1550.86 1259.46 1565.67C1259.46 1571.95 1258.58 1579.19 1259.46 1585.41C1260.4 1591.93 1260.85 1598.65 1261.93 1605.15C1262.7 1609.78 1265.96 1614.17 1266.87 1618.72C1267.75 1623.12 1267.23 1627.92 1268.1 1632.3C1269.7 1640.26 1271.1 1647.99 1273.04 1655.74C1273.68 1658.32 1277.51 1662.6 1275.5 1665.61C1273.57 1668.51 1265.52 1663.66 1261.93 1664.37C1255.19 1665.72 1247.37 1669.21 1240.96 1671.78C1231.06 1675.74 1216.9 1675.11 1206.41 1673.01C1200.87 1671.9 1194.71 1673.94 1189.14 1673.01C1185.33 1672.38 1181.77 1671.17 1178.03 1670.54C1169.74 1669.16 1162.94 1676.16 1153.36 1674.25C1144.78 1672.53 1136.05 1667.76 1127.45 1665.61C1120.66 1663.91 1110.99 1665.61 1104 1665.61" fill="none" fill-rule="evenodd" opacity="1" stroke="#111d9d" stroke-linecap="round" stroke-linejoin="round" stroke-width="10.6299"/>
<path d="M1105.24 959.86C1111.16 957.886 1117.54 958.626 1123.74 958.626C1140.3 958.626 1156.64 962.386 1173.1 963.561C1198.73 965.392 1225.1 963.561 1250.83 963.561C1258.9 963.561 1271.8 961.094 1279.21 964.795" fill="none" fill-rule="evenodd" opacity="1" stroke="#111d9d" stroke-linecap="round" stroke-linejoin="round" stroke-width="10.6299"/>
<path d="M1096.6 1119.02C1110.1 1119.02 1123.86 1118.18 1137.32 1119.02C1150.74 1119.86 1163.66 1123.96 1176.8 1126.43C1192.18 1129.31 1208.28 1127.53 1223.68 1126.43C1236.73 1125.49 1250.51 1126.07 1263.17 1123.96C1266.63 1123.38 1270.74 1122.72 1274.27 1122.72C1276.33 1122.72 1280.44 1122.72 1280.44 1122.72C1280.44 1122.72 1277.15 1122.72 1275.5 1122.72" fill="none" fill-rule="evenodd" opacity="1" stroke="#111d9d" stroke-linecap="round" stroke-linejoin="round" stroke-width="10.6299"/>
<path d="M1084.26 1301.63C1100.27 1301.63 1116.39 1302.24 1132.38 1301.63C1147.66 1301.04 1162.71 1299.16 1178.03 1299.16C1186.52 1299.16 1195.47 1298.46 1203.94 1299.16C1210.93 1299.74 1219.05 1301.82 1226.15 1300.4C1229.04 1299.82 1231.9 1297.27 1234.79 1296.69C1243.32 1294.99 1251.92 1294.23 1260.7 1294.23" fill="none" fill-rule="evenodd" opacity="1" stroke="#111d9d" stroke-linecap="round" stroke-linejoin="round" stroke-width="10.6299"/>
<path d="M1097.83 1491.64C1102.43 1491.64 1104.65 1494.05 1108.94 1495.34C1116.6 1497.64 1127.02 1498.63 1134.85 1499.04C1152.34 1499.96 1169.3 1497.54 1186.67 1496.57C1197.68 1495.96 1209.27 1496.02 1219.98 1497.81C1224.31 1498.53 1228.23 1497.39 1232.32 1496.57C1239.07 1495.22 1247.63 1496.57 1254.53 1496.57" fill="none" fill-rule="evenodd" opacity="1" stroke="#111d9d" stroke-linecap="round" stroke-linejoin="round" stroke-width="10.6299"/>
<path d="M1130.75 1753.76C1130.75 1762.22 1134.22 1770.11 1135.68 1778.41C1139.03 1797.39 1141.84 1815.83 1141.84 1835.1" fill="none" fill-rule="evenodd" opacity="1" stroke="#111d9d" stroke-linecap="round" stroke-linejoin="round" stroke-width="10.6299"/>
<path d="M1126.44 1754.99C1127.86 1752.64 1122.56 1749.54 1123.36 1746.37C1124.59 1741.44 1133.04 1737.99 1136.91 1736.51C1147.17 1732.56 1171.79 1730.16 1175.12 1745.13C1178.66 1761.08 1148.82 1767.79 1138.14 1768.55C1126.31 1769.39 1118.31 1768.39 1126.44 1754.99Z" fill="none" fill-rule="evenodd" opacity="1" stroke="#111d9d" stroke-linecap="round" stroke-linejoin="round" stroke-width="10.6299"/>
<path d="M1193.6 1713.09C1199.68 1725.25 1203.12 1740.37 1204.69 1753.76C1205.32 1759.06 1204.69 1764.44 1204.69 1769.78C1204.69 1771.01 1203.59 1772.93 1204.69 1773.48C1205.73 1774 1206.34 1771.83 1207.16 1771.01" fill="none" fill-rule="evenodd" opacity="1" stroke="#111d9d" stroke-linecap="round" stroke-linejoin="round" stroke-width="10.6299"/>
<path d="M1207.77 1761.15C1208.18 1758.71 1208.85 1756.19 1208.39 1753.76C1208.18 1752.62 1205.41 1752.33 1205.93 1751.3C1206.47 1750.21 1218.13 1752.23 1219.48 1752.53C1228 1754.42 1247.08 1760.21 1245.36 1772.25C1244.21 1780.28 1234.1 1782.53 1226.88 1783.34C1217.97 1784.33 1206.4 1778.89 1205.93 1768.55C1205.81 1766.01 1207.36 1763.66 1207.77 1761.15Z" fill="none" fill-rule="evenodd" opacity="1" stroke="#111d9d" stroke-linecap="round" stroke-linejoin="round" stroke-width="10.6299"/>
<path d="M1558.38 792.514C1559.2 792.103 1560.2 790.632 1560.85 791.281C1561.72 792.153 1560.61 793.77 1560.85 794.978C1561.46 798.044 1564.08 800.326 1564.54 803.605C1565.55 810.679 1568.46 817.474 1569.47 824.555C1570.92 834.702 1572.04 845.172 1573.17 855.364C1576.37 884.161 1578.1 912.326 1578.1 941.63C1578.1 950.105 1578.94 959.077 1578.1 967.51C1577.45 974.017 1576.04 980.58 1576.87 987.228C1578.22 998.017 1582.03 1008.26 1583.03 1019.27C1584.35 1033.83 1580.96 1049.17 1583.03 1063.63C1584.03 1070.61 1584.9 1077.47 1585.49 1084.58C1586.45 1096.04 1587.5 1107.52 1586.73 1119.09C1586.08 1128.82 1584.4 1138.83 1585.49 1148.67C1586.22 1155.24 1588.64 1161.73 1589.19 1168.39C1590.45 1183.44 1588.76 1199.01 1590.42 1213.98C1592.46 1232.34 1592.89 1250.88 1592.89 1269.44C1592.89 1287.64 1591.24 1306.76 1592.89 1324.9C1596.49 1364.52 1592.52 1404.73 1595.35 1444.44C1597.14 1469.51 1599.58 1494.5 1601.51 1519.61C1602.63 1534.08 1602.38 1548.38 1603.98 1562.74C1604.87 1570.72 1603.98 1579.36 1603.98 1587.39C1603.98 1593.27 1604.94 1600.08 1603.98 1605.88C1603.23 1610.37 1602.07 1614.7 1602.75 1619.43C1604.21 1629.69 1606.95 1639.23 1608.91 1649.01C1611.67 1662.81 1607.16 1678.14 1608.91 1692.14C1609.61 1697.77 1611.48 1703.75 1612.61 1709.39" fill="none" fill-rule="evenodd" opacity="1" stroke="#111d9d" stroke-linecap="round" stroke-linejoin="round" stroke-width="10.6299"/>
<path d="M1559.61 791.281C1558.24 789.226 1555.67 786.846 1557.15 783.887C1558.53 781.128 1568.23 783.887 1570.71 783.887C1586.01 783.887 1602.11 789.438 1617.54 786.352C1623.98 785.063 1631.54 782.499 1638.49 783.887C1646.68 785.526 1655.63 788.099 1664.37 786.352C1672.13 784.798 1678.48 779.07 1686.55 777.725C1690.08 777.137 1698.22 778.958 1702.57 778.958C1706.87 778.958 1708.31 777.317 1712.43 776.493C1714.44 776.09 1716.58 776.896 1718.59 776.493C1720.56 776.099 1724.96 771.774 1727.22 774.028C1729.25 776.061 1727.22 779.779 1727.22 782.655C1727.22 791.692 1727.22 800.729 1727.22 809.767C1727.22 824.173 1730.96 837.4 1732.15 851.667C1733.72 870.577 1733.5 894.375 1732.15 913.286C1730.26 939.696 1729.68 965.577 1729.68 992.157C1729.68 1004.27 1730.89 1017.09 1729.68 1029.13C1729.3 1032.9 1727.63 1036.46 1727.22 1040.22C1725.22 1058.18 1727.37 1076.41 1725.98 1094.44C1723.68 1124.38 1724.73 1154.58 1727.22 1184.41C1728.09 1194.9 1731.04 1205.09 1733.38 1215.22C1736.16 1227.26 1737.09 1239.98 1738.31 1252.19C1739.64 1265.53 1744.47 1278.48 1746.93 1291.62C1750.32 1309.67 1750.57 1327.7 1751.86 1345.85C1752.6 1356.22 1755.85 1366.32 1756.79 1376.66C1758.14 1391.44 1758.85 1406.27 1760.49 1421.02C1762.83 1442.12 1758.15 1464 1760.49 1485.1C1761.48 1494.05 1764.51 1503.1 1765.42 1512.22C1768.02 1538.21 1771.8 1563.93 1776.51 1589.86C1779.86 1608.3 1785.9 1626.59 1787.6 1645.31C1788.23 1652.19 1787.86 1659.44 1788.83 1666.26C1790.46 1677.65 1792.13 1689.33 1793.76 1700.77C1794.32 1704.67 1798.12 1713.01 1796.23 1716.79C1795.96 1717.32 1796.38 1714.75 1792.53 1711.86C1789.2 1709.36 1784.22 1708.39 1780.21 1709.39C1772.22 1711.39 1762.9 1713.29 1754.33 1711.86C1749.54 1711.06 1745.47 1707.87 1740.77 1706.93C1737.64 1706.3 1734.08 1706.23 1730.91 1705.7C1716.39 1703.28 1701.39 1703.23 1686.55 1703.23C1681.21 1703.23 1674.6 1704.12 1669.3 1703.23C1661.17 1701.88 1651.94 1698.64 1643.42 1700.77C1637.87 1702.16 1633.31 1704.85 1627.39 1705.7C1617.8 1707.07 1610.6 1702 1601.51 1702" fill="none" fill-rule="evenodd" opacity="1" stroke="#111d9d" stroke-linecap="round" stroke-linejoin="round" stroke-width="10.6299"/>
<path d="M1624.93 1789.5C1624.26 1790.85 1620.44 1796.61 1622.47 1798.13C1628.43 1802.6 1648.02 1791.38 1650.81 1785.8C1652.15 1783.12 1653.85 1777.37 1649.58 1775.94C1633.35 1770.53 1602.25 1792.19 1611.37 1810.45C1617.67 1823.03 1634.93 1825.24 1647.11 1825.24" fill="none" fill-rule="evenodd" opacity="1" stroke="#111d9d" stroke-linecap="round" stroke-linejoin="round" stroke-width="10.6299"/>
<path d="M1677.92 1741.44C1689.68 1757.11 1693.41 1779.17 1696.41 1798.13C1697.31 1803.82 1697.64 1809.61 1697.64 1815.38C1697.64 1817.02 1697.37 1818.69 1697.64 1820.31C1697.79 1821.21 1698.22 1823.42 1698.87 1822.77C1703.09 1818.55 1701.34 1793.54 1701.34 1787.03C1701.34 1784.16 1701.34 1781.28 1701.34 1778.41C1701.34 1777.59 1700.53 1775.78 1701.34 1775.94C1706.59 1776.99 1710.17 1782.05 1714.89 1784.57C1724.99 1789.95 1754.81 1801.14 1753.1 1816.61C1752.19 1824.77 1742 1827.4 1735.84 1828.93C1721.21 1832.59 1707.34 1833.17 1693.94 1826.47" fill="none" fill-rule="evenodd" opacity="1" stroke="#111d9d" stroke-linecap="round" stroke-linejoin="round" stroke-width="10.6299"/>
<path d="M2005.73 799.908C2005.32 799.086 2004.91 796.621 2004.5 797.443C2003.21 800.015 2004.5 803.194 2004.5 806.07C2004.5 815.255 2004.83 824.128 2005.73 833.182C2006.72 843.082 2008.72 852.788 2009.43 862.759C2010.36 875.829 2008.34 889.137 2009.43 902.194C2011.37 925.47 2010.66 949.008 2010.66 972.439C2010.66 1016.42 2009.43 1060.45 2009.43 1104.3C2009.43 1145.13 2009.75 1185.64 2011.89 1226.31C2012.32 1234.51 2011.44 1242.75 2011.89 1250.95C2013.54 1280.62 2019.03 1309.97 2020.52 1339.68C2023.04 1390.01 2024.16 1440.12 2029.15 1490.03C2030.07 1499.27 2029.15 1509.08 2029.15 1518.38C2029.15 1535.63 2029.15 1552.88 2029.15 1570.14C2029.15 1577.71 2028.21 1586.05 2029.15 1593.55C2030.43 1603.85 2032.78 1614.03 2034.08 1624.36C2035.18 1633.22 2032.61 1642.67 2034.08 1651.47C2034.76 1655.56 2036.03 1659.69 2036.54 1663.8C2037.29 1669.82 2035.54 1676.3 2036.54 1682.28C2037.42 1687.54 2038.94 1693.13 2040.24 1698.3C2041.78 1704.45 2040.24 1712.92 2040.24 1719.25" fill="none" fill-rule="evenodd" opacity="1" stroke="#111d9d" stroke-linecap="round" stroke-linejoin="round" stroke-width="10.6299"/>
<path d="M2010.66 801.14C2009.43 801.14 2007.84 802.012 2006.96 801.14C2006.31 800.491 2007.37 799.086 2008.2 798.675C2010.47 797.539 2019.67 798.675 2021.75 798.675C2031.2 798.675 2040.65 798.675 2050.1 798.675C2057.48 798.675 2064.87 796.385 2072.28 797.443C2074.85 797.81 2077.11 799.481 2079.67 799.908C2086.94 801.119 2094.57 801.159 2101.86 802.373C2112.07 804.076 2120.48 808.466 2130.2 803.605C2139.11 799.151 2148.73 799.908 2158.54 799.908C2160.05 799.908 2166.72 798.886 2167.17 801.14C2167.96 805.066 2164.17 817.916 2163.47 822.09C2161.53 833.77 2159.45 846.039 2158.54 857.829C2157.5 871.46 2161.21 883.855 2162.24 897.265C2163.64 915.461 2159.83 933.456 2158.54 951.489C2157.28 969.227 2160.88 986.767 2159.78 1004.48C2158.93 1018.07 2155.75 1031.57 2154.85 1045.15C2153.57 1064.37 2155.98 1083.84 2154.85 1103.07C2153.38 1128.01 2151.06 1153.18 2152.38 1178.24C2153.36 1196.84 2158.68 1215.01 2159.78 1233.7C2161.13 1256.62 2158.34 1279.8 2159.78 1302.71C2160.86 1320.01 2164.79 1337.18 2165.94 1354.47C2167.2 1373.4 2168.06 1392.29 2169.64 1411.16C2171.03 1427.93 2169.58 1444.91 2170.87 1461.69C2171.43 1469.01 2171.44 1476.58 2172.1 1483.87C2173 1493.8 2175.93 1503.58 2177.03 1513.45C2177.93 1521.56 2176.13 1529.98 2177.03 1538.1C2177.99 1546.73 2178.54 1555.39 2179.5 1563.98C2181.07 1578.12 2178.72 1593.05 2180.73 1607.11C2182.41 1618.86 2182.94 1631 2184.42 1642.85C2184.98 1647.27 2183.69 1652.01 2184.42 1656.4C2185.21 1661.13 2188.05 1665.39 2189.35 1669.96C2190.28 1673.22 2190.48 1676.7 2191.82 1679.82C2192.4 1681.18 2193.88 1682.09 2194.28 1683.51C2195.76 1688.67 2194.67 1694.35 2196.75 1699.54C2199.23 1705.73 2205.37 1712.21 2205.37 1719.25C2205.37 1722.97 2201.54 1722.11 2199.21 1721.72C2190.42 1720.25 2181.18 1724.12 2172.1 1725.42C2165.16 1726.41 2158.09 1728.12 2151.15 1729.11C2138.16 1730.97 2124.24 1728.74 2111.71 1726.65C2105.66 1725.64 2100.49 1726.44 2094.46 1724.18C2087.93 1721.73 2083.55 1715.63 2077.21 1713.09C2075.3 1712.33 2072.88 1712.17 2071.05 1713.09C2068.9 1714.17 2056.26 1730.17 2056.26 1718.02" fill="none" fill-rule="evenodd" opacity="1" stroke="#111d9d" stroke-linecap="round" stroke-linejoin="round" stroke-width="10.6299"/>
<path d="M2087.07 1047.61C2087.48 1046.79 2087.96 1046 2088.3 1045.15C2088.78 1043.94 2089.53 1040.15 2089.53 1041.45C2089.53 1049.22 2084.15 1055.91 2080.91 1062.4C2073.61 1076.99 2065.59 1090.82 2056.26 1104.3C2054.7 1106.56 2050.1 1110.4 2050.1 1114.16C2050.1 1115.08 2050.76 1112.41 2051.33 1111.7C2052.42 1110.34 2053.79 1109.23 2055.03 1108" fill="none" fill-rule="evenodd" opacity="1" stroke="#111d9d" stroke-linecap="round" stroke-linejoin="round" stroke-width="10.6299"/>
<path d="M2094.46 1042.68C2096.27 1051.73 2100.18 1058.61 2103.09 1067.33C2106.52 1077.63 2108.28 1089.96 2109.25 1100.61C2111.54 1125.84 2112.44 1155.3 2110.48 1180.71C2110.03 1186.62 2108.02 1192.02 2108.02 1197.96" fill="none" fill-rule="evenodd" opacity="1" stroke="#111d9d" stroke-linecap="round" stroke-linejoin="round" stroke-width="10.6299"/>
<path d="M2052.56 1241.1C2048.38 1232.73 2061.78 1230.16 2067.35 1228.77C2071.41 1227.76 2075.59 1227.24 2079.67 1226.31C2097.86 1222.17 2116.41 1217.68 2135.13 1217.68C2139.65 1217.68 2144.34 1216.44 2148.69 1217.68C2152.05 1218.64 2156.12 1222.65 2158.54 1225.07" fill="none" fill-rule="evenodd" opacity="1" stroke="#111d9d" stroke-linecap="round" stroke-linejoin="round" stroke-width="10.6299"/>
<path d="M1589.19 961.348C1585.87 959.687 1583.61 964.064 1584.26 965.045C1586.15 967.873 1595.61 967.326 1597.82 967.51C1600.71 967.751 1603.56 968.382 1606.44 968.742C1622.63 970.765 1639.43 971.207 1655.74 971.207C1669.45 971.207 1683.98 972.573 1697.64 971.207C1699.32 971.038 1700.9 970.253 1702.57 969.974C1703.38 969.839 1705.03 970.796 1705.03 969.974C1705.03 967.531 1676.32 967.51 1691.48 967.51C1692.71 967.51 1693.94 967.51 1695.17 967.51" fill="none" fill-rule="evenodd" opacity="1" stroke="#111d9d" stroke-linecap="round" stroke-linejoin="round" stroke-width="10.6299"/>
<path d="M1589.19 1133.88C1611.78 1133.88 1634.38 1133.88 1656.97 1133.88C1664.37 1133.88 1671.76 1133.88 1679.15 1133.88C1681.62 1133.88 1684.08 1133.88 1686.55 1133.88C1687.78 1133.88 1690.25 1132.65 1690.25 1133.88C1690.25 1135.42 1685.22 1135.11 1681.62 1135.11" fill="none" fill-rule="evenodd" opacity="1" stroke="#111d9d" stroke-linecap="round" stroke-linejoin="round" stroke-width="10.6299"/>
<path d="M1595.35 1305.18C1594.53 1304.77 1592.07 1304.36 1592.89 1303.95C1594.36 1303.21 1596.17 1303.95 1597.82 1303.95C1600.28 1303.95 1602.75 1303.95 1605.21 1303.95C1608.91 1303.95 1612.61 1304.13 1616.3 1303.95C1626.57 1303.43 1636.84 1303.07 1647.11 1302.71C1663.52 1302.15 1679.95 1300.57 1696.41 1301.48C1704.37 1301.92 1711.91 1305.18 1719.82 1305.18" fill="none" fill-rule="evenodd" opacity="1" stroke="#111d9d" stroke-linecap="round" stroke-linejoin="round" stroke-width="10.6299"/>
<path d="M1596.59 1514.68C1618.87 1514.68 1642.23 1512.47 1664.37 1514.68C1674.79 1515.72 1685.71 1518.67 1696.41 1517.15C1712.09 1514.9 1727.25 1514.68 1743.24 1514.68C1748.43 1514.68 1754.57 1513.57 1759.26 1515.91" fill="none" fill-rule="evenodd" opacity="1" stroke="#111d9d" stroke-linecap="round" stroke-linejoin="round" stroke-width="10.6299"/>
<path d="M1433.43 1204.37C1432.55 1204.37 1431.23 1203.61 1430.78 1204.37C1426.58 1211.51 1423.65 1219.33 1420.2 1226.86C1409.83 1249.49 1396.88 1271.88 1393.74 1296.97C1393.57 1298.36 1394.89 1294.39 1395.07 1293C1395.34 1290.82 1395.07 1288.59 1395.07 1286.39C1395.07 1282.42 1395.07 1278.45 1395.07 1274.48C1395.07 1255.87 1392.42 1237.52 1392.42 1218.92C1392.42 1217 1392.42 1208.34 1392.42 1208.34C1390.5 1207.38 1388.61 1211.51 1388.45 1212.31C1383.77 1235.7 1418.99 1260.45 1434.75 1271.84C1438.62 1274.63 1442.81 1276.95 1446.66 1279.77C1449.44 1281.81 1451.78 1284.41 1454.6 1286.39C1456.91 1288.01 1462.1 1289 1461.21 1291.68C1460.49 1293.85 1454.78 1293 1453.27 1293" fill="none" fill-rule="evenodd" opacity="1" stroke="#111d9d" stroke-linecap="round" stroke-linejoin="round" stroke-width="10.6299"/>
<path d="M1451.95 1232.15C1426.42 1239.45 1402.29 1250.97 1377.87 1261.25C1374.4 1262.72 1370.86 1264.03 1367.29 1265.22C1364.85 1266.04 1359.52 1266.89 1360.67 1269.19C1361.92 1271.69 1366.11 1267.79 1368.61 1266.55" fill="none" fill-rule="evenodd" opacity="1" stroke="#111d9d" stroke-linecap="round" stroke-linejoin="round" stroke-width="10.6299"/>
<path d="M1834.27 1275.81C1851.16 1271.58 1869.78 1270.16 1887.18 1269.19C1896.02 1268.7 1904.83 1266.55 1913.64 1266.55" fill="none" fill-rule="evenodd" opacity="1" stroke="#111d9d" stroke-linecap="round" stroke-linejoin="round" stroke-width="10.6299"/>
<path d="M1852.79 1237.44C1850.84 1247.17 1856.1 1253.22 1859.4 1262.58C1863.35 1273.77 1867.31 1285 1872.63 1295.65C1875.7 1301.79 1879.25 1305.75 1879.25 1312.85" fill="none" fill-rule="evenodd" opacity="1" stroke="#111d9d" stroke-linecap="round" stroke-linejoin="round" stroke-width="10.6299"/>
<path d="M1070.27 720.74C1061.76 716.487 1059.54 726.047 1054.77 732.012C1050.11 737.833 1043.98 744.21 1039.27 748.921C1034.07 754.117 1032.39 762.79 1027.99 768.648C1024.41 773.425 1020.03 777.779 1016.72 782.739C1014.49 786.078 1013.9 790.254 1012.49 794.012C1009.97 800.743 1005.81 807.377 1002.63 813.739C999.786 819.426 995.19 823.038 991.357 827.83C986.776 833.556 982.796 840.777 980.084 847.557C974.767 860.849 970.99 875.608 964.584 888.42C962.091 893.406 959.333 898.539 957.539 903.92C954.495 913.05 953.139 922.843 950.493 932.102C947.472 942.676 943.467 952.461 940.63 963.102C936.891 977.12 932.395 991.195 929.357 1005.37C925.479 1023.47 924.311 1042.15 920.903 1060.33C916.562 1083.48 911.105 1107.19 909.63 1130.78C907.613 1163.06 910.442 1195.92 912.448 1228.01C914.416 1259.5 914.057 1291 916.675 1322.42C918.013 1338.47 922.647 1354.21 923.721 1370.33C924.966 1389 924.062 1408.12 926.539 1426.69C926.991 1430.08 928.641 1433.21 929.357 1436.55C932.792 1452.59 935.243 1468.55 939.221 1484.46C942.442 1497.35 942.08 1510.96 944.857 1523.92C946.517 1531.67 948.957 1541.92 951.902 1549.28C956.808 1561.54 964.964 1573.09 968.811 1585.92C970.32 1590.95 970.248 1596.35 971.629 1601.42C976.458 1619.12 979.851 1637.12 984.311 1654.96C989.476 1675.62 1001.63 1695.24 1011.08 1714.14C1017.01 1725.99 1022.29 1747.22 1035.04 1753.6" fill="none" fill-rule="evenodd" opacity="1" stroke="#111d9d" stroke-linecap="round" stroke-linejoin="round" stroke-width="10.6299"/>
<path d="M2176.4 702.421C2190.33 716.355 2199.56 732.991 2208.8 750.33C2212.26 756.817 2214.34 764.112 2218.67 770.057C2235.1 792.659 2260.29 805.028 2270.8 832.057C2280.26 856.375 2280.27 883.326 2287.71 908.147C2299.65 947.924 2323.45 982.363 2331.39 1023.69C2337.73 1056.63 2340.38 1090.56 2345.48 1123.74C2351.13 1160.42 2357 1196.41 2358.17 1233.65C2359.43 1274.22 2352.39 1314.34 2351.12 1354.83C2349.52 1406.2 2355.35 1458.73 2348.3 1509.83C2340.33 1567.63 2320.13 1622.54 2301.8 1677.51C2289.19 1715.35 2269.39 1753.73 2269.39 1794.46" fill="none" fill-rule="evenodd" opacity="1" stroke="#111d9d" stroke-linecap="round" stroke-linejoin="round" stroke-width="10.6299"/>
<path d="M677.25 1261.41C694.969 1255.51 720.558 1256.52 738.945 1256.05C760.38 1255.5 781.881 1254.71 803.323 1254.71" fill="none" fill-rule="evenodd" opacity="1" stroke="#111d9d" stroke-linecap="round" stroke-linejoin="round" stroke-width="10.6299"/>
<path d="M708.768 1208.43C709.717 1210.33 704.552 1207.51 702.733 1206.42C701.876 1205.91 699.102 1204.77 700.051 1205.08C703.004 1206.07 707.376 1205.65 708.768 1208.43Z" fill="none" fill-rule="evenodd" opacity="1" stroke="#111d9d" stroke-linecap="round" stroke-linejoin="round" stroke-width="10.6299"/>
<path d="M726.204 1308.35C727.478 1307.08 728.028 1304.37 726.875 1302.99C725.97 1301.9 724.192 1303.88 722.851 1304.33C719.673 1305.39 718.191 1304.83 717.486 1308.35C717.223 1309.67 716.145 1312.38 717.486 1312.38C720.687 1312.38 723.941 1310.62 726.204 1308.35Z" fill="none" fill-rule="evenodd" opacity="1" stroke="#111d9d" stroke-linecap="round" stroke-linejoin="round" stroke-width="10.6299"/>
<path d="M285.937 758.454C279.734 770.861 287.137 793.367 288.75 806.272C289.771 814.438 289.473 823.386 290.157 831.588C290.822 839.569 290.838 847.523 291.563 855.497C292.6 866.906 297.459 877.884 298.595 889.251C299.578 899.08 299.18 908.93 300.002 918.786C301.807 940.454 308.178 961.787 309.847 983.481C310.571 992.895 310.398 1002.2 311.253 1011.61C311.929 1019.04 310.51 1026.68 311.253 1034.11C312.095 1042.54 313.414 1050.96 314.066 1059.43C315.536 1078.54 312.791 1097.96 314.066 1117.09C315.473 1138.2 316.664 1159.31 318.285 1180.38C319.538 1196.66 316.66 1213.36 318.285 1229.6C319.873 1245.48 323.022 1261.42 323.911 1277.42C325.293 1302.3 326.065 1327.19 328.13 1351.96C329.527 1368.72 327.011 1385.81 328.13 1402.59C328.824 1413.01 329.536 1423.02 329.536 1433.53C329.536 1441.78 328.626 1450.65 329.536 1458.85C332.303 1483.75 334.474 1508.88 337.975 1533.39C338.505 1537.1 337.561 1540.91 337.975 1544.64C338.78 1551.89 338.192 1560.01 339.381 1567.14C340.082 1571.35 341.666 1575.58 342.194 1579.8C343.234 1588.12 342.222 1596.85 343.601 1605.12C344.634 1611.32 348.197 1617.23 349.226 1623.4C350.975 1633.89 347.478 1645.26 349.226 1655.75C350.148 1661.28 352.039 1665.19 352.039 1671.22" fill="none" fill-rule="evenodd" opacity="1" stroke="#111d9d" stroke-linecap="round" stroke-linejoin="round" stroke-width="10.6299"/>
<path d="M287.344 762.673C293.287 764.654 299.508 764.612 305.627 765.486C316.891 767.095 328.335 771.163 339.381 773.925C346.801 775.78 353.079 780.513 360.478 782.363C366.824 783.95 384.654 783.209 391.419 782.363C396.77 781.694 401.538 778.813 406.889 778.144C413.489 777.319 417.694 779.742 423.766 780.957C429.734 782.15 437.343 780.957 443.456 780.957C453.542 780.957 461.686 772.761 471.584 771.112C474.854 770.567 478.242 770.616 481.429 769.705C483.076 769.235 493.672 765.071 495.494 766.892C496.976 768.375 493.092 770.462 492.681 772.518C491.94 776.224 492.191 780.103 491.274 783.769C487.328 799.555 485.662 815.57 482.836 831.588C477.102 864.08 476.049 897.006 474.397 930.037C472.964 958.696 470.455 987.213 468.772 1015.83C467.361 1039.8 467.059 1067.8 468.772 1091.77C470.604 1117.43 474.838 1143.27 472.991 1169.13C471.848 1185.12 469.128 1201.08 467.365 1216.95C465.565 1233.15 468.719 1249.92 467.365 1266.17C465.833 1284.56 465.329 1302.69 467.365 1321.02C468.857 1334.45 465.873 1348.38 467.365 1361.81C468.43 1371.39 471.8 1380.41 472.991 1389.94C474.498 1401.99 472.89 1414.45 474.397 1426.5C475.801 1437.73 478.604 1448.9 480.023 1460.26C481.476 1471.88 480.533 1483.9 482.836 1495.42C484.283 1502.65 489.814 1509.21 491.274 1516.51C492.532 1522.8 490.477 1529.83 491.274 1536.2C493.192 1551.54 496.337 1567.42 499.713 1582.61C500.948 1588.17 503.212 1592.33 503.932 1598.08C504.961 1606.32 503.971 1615.2 505.339 1623.4C505.826 1626.33 508.74 1628.98 509.558 1631.84C510.852 1636.37 510.298 1641.24 510.964 1645.9C511.808 1651.81 515.401 1656.84 516.59 1662.78C517.304 1666.35 517.393 1670.41 517.996 1674.03C518.356 1676.19 519.389 1685.76 516.59 1686.69C513.685 1687.66 511.589 1679.77 509.558 1678.25C504.478 1674.44 490.424 1672.1 484.242 1671.22C475.04 1669.9 462.711 1667.93 453.301 1669.81C446.434 1671.19 440.893 1678.2 433.611 1679.66C429.225 1680.53 426.287 1676.42 422.36 1675.44C417.537 1674.23 410.435 1674.03 405.483 1674.03C399.038 1674.03 393.248 1673.83 387.199 1672.63C384.441 1672.07 381.373 1673.67 378.761 1672.63C373.533 1670.53 371.744 1665.82 364.697 1667C360.062 1667.77 339.991 1676.84 356.258 1676.84" fill="none" fill-rule="evenodd" opacity="1" stroke="#111d9d" stroke-linecap="round" stroke-linejoin="round" stroke-width="10.6299"/>
<path d="M302.814 930.037C352.776 940.029 405.487 932.85 456.114 932.85" fill="none" fill-rule="evenodd" opacity="1" stroke="#111d9d" stroke-linecap="round" stroke-linejoin="round" stroke-width="10.6299"/>
<path d="M318.285 1119.9C316.879 1119.9 313.071 1118.91 314.066 1119.9C316.443 1122.28 325.35 1120.25 328.13 1119.9C338.978 1118.55 349.441 1119.11 360.478 1118.5C386.61 1117.04 413.075 1115.68 439.237 1115.68C447.787 1115.68 455.907 1114.28 464.552 1114.28C467.867 1114.28 471.127 1113.42 474.397 1112.87C475.785 1112.64 479.951 1112.43 478.617 1112.87C475.911 1113.77 472.991 1113.81 470.178 1114.28" fill="none" fill-rule="evenodd" opacity="1" stroke="#111d9d" stroke-linecap="round" stroke-linejoin="round" stroke-width="10.6299"/>
<path d="M333.756 1280.23C331.412 1280.23 328.998 1279.67 326.724 1280.23C325.707 1280.49 323.169 1280.9 323.911 1281.64C324.905 1282.64 326.738 1281.44 328.13 1281.64C330.043 1281.91 331.832 1282.86 333.756 1283.05C336.555 1283.33 339.381 1283.05 342.194 1283.05C356.205 1283.05 370.398 1283.61 384.387 1283.05C402.63 1282.32 421.135 1280.47 439.237 1278.83C444.046 1278.39 449.921 1279.79 454.707 1278.83C460.784 1277.61 465.011 1273.2 471.584 1273.2" fill="none" fill-rule="evenodd" opacity="1" stroke="#111d9d" stroke-linecap="round" stroke-linejoin="round" stroke-width="10.6299"/>
<path d="M329.536 1467.29C335.177 1467.29 338.317 1469.44 343.601 1470.1C357.617 1471.85 373.101 1470.1 387.199 1470.1C398.306 1470.1 411.338 1471.94 422.36 1470.1C424.85 1469.69 426.902 1467.7 429.392 1467.29C439.24 1465.65 450.395 1464.48 460.333 1464.48" fill="none" fill-rule="evenodd" opacity="1" stroke="#111d9d" stroke-linecap="round" stroke-linejoin="round" stroke-width="10.6299"/>
<path d="M380.167 1761.23C381.127 1766.03 383.286 1770.52 384.387 1775.29C387.03 1786.75 387.843 1798.89 390.012 1810.45C391.522 1818.5 395.395 1827.82 391.419 1835.77" fill="none" fill-rule="evenodd" opacity="1" stroke="#111d9d" stroke-linecap="round" stroke-linejoin="round" stroke-width="10.6299"/>
<path d="M376.651 1761.93C375.564 1756.25 376.575 1749.82 378.761 1744.35C382.491 1735.03 393.994 1723.87 404.076 1721.85C409.612 1720.74 415.904 1720.73 420.953 1723.26C429.049 1727.3 440.745 1744.48 437.83 1754.2C433.695 1767.98 418.607 1769.27 406.889 1771.07C395.728 1772.79 379.326 1775.9 376.651 1761.93Z" fill="none" fill-rule="evenodd" opacity="1" stroke="#111d9d" stroke-linecap="round" stroke-linejoin="round" stroke-width="10.6299"/>
<path d="M454.707 1710.6C454.707 1709.19 453.927 1705.21 454.707 1706.38C458.494 1712.06 458.77 1719.42 460.333 1726.07C463.418 1739.18 465.793 1752.09 467.365 1765.45C467.807 1769.2 468.15 1772.97 468.772 1776.7C469.089 1778.61 470.178 1782.33 470.178 1782.33C470.178 1782.33 468.985 1778.62 468.772 1776.7C468.357 1772.97 468.772 1769.2 468.772 1765.45" fill="none" fill-rule="evenodd" opacity="1" stroke="#111d9d" stroke-linecap="round" stroke-linejoin="round" stroke-width="10.6299"/>
<path d="M480.023 1749.98C490.539 1749.98 501.36 1750.8 510.964 1755.6C514.392 1757.32 520.398 1762.05 517.996 1766.85C514.837 1773.17 503.991 1775.39 498.306 1776.7C484.787 1779.82 471.316 1780.92 457.52 1780.92" fill="none" fill-rule="evenodd" opacity="1" stroke="#111d9d" stroke-linecap="round" stroke-linejoin="round" stroke-width="10.6299"/>
<path d="M2378.68 1302.79C2389.09 1307.99 2405.78 1304.82 2417.34 1304.82C2428.88 1304.82 2440.39 1303.47 2451.92 1302.79C2462.08 1302.19 2472.32 1303.8 2482.44 1302.79C2487.21 1302.31 2491.88 1300.75 2496.68 1300.75C2498.03 1300.75 2493.74 1301.51 2492.61 1300.75C2490.09 1299.07 2489.9 1295.33 2488.54 1292.62" fill="none" fill-rule="evenodd" opacity="1" stroke="#111d9d" stroke-linecap="round" stroke-linejoin="round" stroke-width="10.6299"/>
<path d="M2451.92 1260.07C2450.56 1259.39 2449.21 1258.71 2447.85 1258.03C2446.5 1257.35 2442.71 1257.07 2443.78 1256C2446.83 1252.95 2457.15 1259.63 2458.02 1260.07C2471.59 1266.85 2485.18 1273.64 2498.71 1280.41C2504.14 1283.12 2509.36 1286.29 2514.99 1288.55C2516.4 1289.11 2520.13 1289.51 2519.06 1290.58C2516.66 1292.98 2512.27 1290.58 2508.88 1290.58C2503.35 1290.58 2494.85 1292.41 2490.57 1296.69C2483.98 1303.28 2477.34 1324.18 2474.3 1333.3" fill="none" fill-rule="evenodd" opacity="1" stroke="#111d9d" stroke-linecap="round" stroke-linejoin="round" stroke-width="10.6299"/>
<path d="M2557.71 737.223C2557.71 744.871 2562.01 750.344 2563.81 757.567C2567.78 773.423 2571.53 788.647 2576.02 804.359C2578.44 812.822 2582.92 822.124 2584.16 830.806C2586.91 850.082 2583.01 870.685 2586.19 889.804C2587.47 897.475 2588.78 894.98 2592.29 902.01C2594.8 907.012 2595.46 914.879 2596.36 920.32C2598.43 932.693 2591.94 943.178 2590.26 954.905C2588.88 964.567 2590.26 975.628 2590.26 985.421C2590.26 1003.05 2596.66 1019.66 2594.33 1038.32C2591.88 1057.89 2592.44 1077.7 2590.26 1097.31C2588.67 1111.61 2583.56 1125.66 2582.12 1140.04C2580.14 1159.9 2582.12 1181.07 2582.12 1201.07C2582.12 1212.81 2580.09 1223.81 2580.09 1235.65C2580.09 1260.99 2577.57 1287.76 2580.09 1312.96C2581.34 1325.52 2586.32 1337.77 2590.26 1349.58C2593.12 1358.16 2593.19 1367.56 2596.36 1376.03C2601.56 1389.88 2606.9 1405.79 2608.57 1420.78C2611.65 1448.5 2608.57 1478.29 2608.57 1506.23C2608.57 1522.35 2612.65 1538.65 2610.6 1555.05C2608.35 1573.09 2598.92 1590.08 2596.36 1607.95C2593.45 1628.36 2604.03 1647.69 2612.64 1664.91C2615.73 1671.1 2616.55 1678.69 2618.74 1685.26C2624.99 1703.99 2632.98 1722.33 2632.98 1742.22C2632.98 1754.01 2633.44 1776.35 2624.85 1784.94" fill="none" fill-rule="evenodd" opacity="1" stroke="#111d9d" stroke-linecap="round" stroke-linejoin="round" stroke-width="10.6299"/>
<path d="M2555.68 735.189C2556.93 732.688 2557.71 727.051 2557.71 727.051C2557.71 727.051 2556.58 730.368 2557.71 731.12C2561.1 733.377 2565.85 731.12 2569.92 731.12C2579.41 731.12 2588.9 731.12 2598.4 731.12C2620.78 731.12 2643.15 731.12 2665.53 731.12C2673.07 731.12 2682.54 729.639 2689.95 731.12C2696.76 732.483 2703.44 736.082 2710.29 737.223C2721.76 739.135 2735.26 737.223 2746.91 737.223C2748.6 737.223 2755.61 736.313 2757.08 739.258C2759.2 743.495 2756.4 752.811 2757.08 757.567C2758.53 767.697 2757.68 778.017 2759.12 788.083C2759.99 794.166 2763.53 800.474 2765.22 806.393C2767.88 815.717 2770.13 827.385 2771.32 836.909C2773.62 855.302 2769.29 873.604 2769.29 891.838C2769.29 907.971 2773.63 922.788 2775.39 938.63C2777.7 959.395 2773.08 980.93 2775.39 1001.7C2778.82 1032.52 2788.58 1062.35 2791.67 1093.24C2793.76 1114.21 2793.64 1135.39 2795.74 1156.31C2796.42 1163.19 2799.12 1169.77 2799.8 1176.66C2804.9 1227.66 2815.51 1278.23 2820.15 1329.24C2821.25 1341.34 2819.14 1353.74 2820.15 1365.86C2821.8 1385.66 2828.14 1405.22 2830.32 1424.85C2832.03 1440.26 2828.61 1456.24 2830.32 1471.64C2832.46 1490.91 2840.13 1509.46 2842.53 1528.61C2844.72 1546.11 2838.83 1560.62 2836.42 1577.43C2833.64 1596.89 2834.39 1616.7 2834.39 1636.43C2834.39 1643.41 2835.76 1651.97 2834.39 1658.81C2832.31 1669.2 2831.15 1680.54 2832.35 1691.36C2833.25 1699.45 2837.16 1705.97 2838.46 1713.74C2841.57 1732.4 2844.93 1750.18 2848.63 1768.67C2849.53 1773.17 2863.21 1791.38 2866.94 1795.12C2868.01 1796.19 2871.01 1795.63 2871.01 1797.15C2871.01 1797.15 2864.99 1797.15 2860.84 1797.15C2858.12 1797.15 2855.41 1797.15 2852.7 1797.15C2844.56 1797.15 2836.42 1797.15 2828.29 1797.15C2804.52 1797.15 2780.91 1801.02 2757.08 1799.18C2742.59 1798.07 2728.51 1793.88 2714.36 1791.05C2698 1787.77 2678.1 1787.16 2661.46 1789.01C2652.95 1789.96 2615.13 1811.01 2612.64 1791.05C2612.13 1787.01 2612.64 1782.91 2612.64 1778.84" fill="none" fill-rule="evenodd" opacity="1" stroke="#111d9d" stroke-linecap="round" stroke-linejoin="round" stroke-width="10.6299"/>
<path d="M2409.2 617.193C2413 628.605 2415.57 640.367 2419.37 651.778C2420.05 653.813 2419.26 657.881 2421.4 657.881C2423.44 657.881 2422.21 653.648 2421.4 651.778C2418.52 645.036 2412.48 640.029 2409.2 633.468C2405.74 626.56 2394.16 598.048 2399.03 590.746C2400.99 587.802 2406.85 588.712 2409.2 588.712C2422.9 588.712 2436.5 595.386 2447.85 602.952C2456.81 608.928 2466.68 615.681 2474.3 623.296" fill="none" fill-rule="evenodd" opacity="1" stroke="#111d9d" stroke-linecap="round" stroke-linejoin="round" stroke-width="10.6299"/>
<path d="M2476.33 611.09C2480.92 615.676 2485.83 620.294 2492.61 621.262C2497.98 622.029 2503.5 621.935 2508.88 621.262C2521.36 619.703 2529.51 605.264 2519.06 594.815C2509.51 585.272 2486.26 586.303 2476.33 594.815C2458.32 610.259 2468.74 652.256 2484.47 666.019C2495.26 675.459 2510.07 674.157 2523.12 674.157" fill="none" fill-rule="evenodd" opacity="1" stroke="#111d9d" stroke-linecap="round" stroke-linejoin="round" stroke-width="10.6299"/>
<path d="M2576.02 590.746C2570.64 587.159 2562.4 583.987 2555.68 586.677C2548.18 589.673 2538.77 605.121 2541.43 613.124C2544.86 623.405 2559.36 628.239 2567.88 631.434C2582.36 636.865 2597.95 640.253 2610.6 649.744C2612.91 651.47 2615.42 653.274 2616.71 655.847C2620.19 662.807 2613.34 664.285 2608.57 666.019C2603.93 667.706 2599.22 669.435 2594.33 670.088C2584.25 671.432 2573.99 670.088 2563.81 670.088C2551.43 670.088 2537.63 670.612 2531.26 657.881" fill="none" fill-rule="evenodd" opacity="1" stroke="#111d9d" stroke-linecap="round" stroke-linejoin="round" stroke-width="10.6299"/>
<path d="M2624.85 607.021C2627.94 616.316 2629.38 624.066 2630.95 633.468C2631.55 637.071 2634.3 640.06 2635.02 643.641C2636.47 650.899 2637.28 662.176 2643.16 668.053C2657.36 682.262 2698.08 657.893 2702.15 641.606C2703.88 634.711 2696.29 617.922 2694.02 611.09" fill="none" fill-rule="evenodd" opacity="1" stroke="#111d9d" stroke-linecap="round" stroke-linejoin="round" stroke-width="10.6299"/>
<path d="M2700.12 478.854C2701.47 478.175 2702.83 476.141 2704.19 476.819C2705.4 477.426 2703.81 479.584 2704.19 480.888C2705.19 484.399 2707.18 487.57 2708.26 491.06C2709.9 496.405 2710.9 501.927 2712.32 507.335C2714.29 514.813 2716.48 522.232 2718.43 529.714C2724.87 554.42 2732.17 579.877 2736.74 604.987C2738.93 617.07 2739.18 629.432 2740.81 641.606C2742.25 652.432 2741.32 663.517 2742.84 674.157C2743.53 678.982 2745.04 688.061 2748.94 680.26" fill="none" fill-rule="evenodd" opacity="1" stroke="#111d9d" stroke-linecap="round" stroke-linejoin="round" stroke-width="10.6299"/>
<path d="M2769.29 480.888C2771.32 482.244 2773.86 483.047 2775.39 484.957C2779.3 489.839 2778.15 497.153 2779.46 503.266C2782.36 516.791 2784.89 530.392 2787.6 543.955C2793.34 572.664 2805.54 600.571 2809.98 629.4C2811.03 636.221 2809.98 644.757 2809.98 651.778" fill="none" fill-rule="evenodd" opacity="1" stroke="#111d9d" stroke-linecap="round" stroke-linejoin="round" stroke-width="10.6299"/>
<path d="M2596.36 904.045C2595.32 906.123 2591.81 916.605 2594.33 918.285C2600.43 922.352 2601.93 913.716 2606.54 912.182C2614.82 909.421 2626.7 905.431 2635.02 904.045C2639.03 903.376 2643.17 904.335 2647.22 904.045C2674.37 902.106 2701.34 902.01 2728.6 902.01" fill="none" fill-rule="evenodd" opacity="1" stroke="#111d9d" stroke-linecap="round" stroke-linejoin="round" stroke-width="10.6299"/>
<path d="M2588.23 1083.07C2586.87 1084.43 2585.87 1086.28 2584.16 1087.14C2582.94 1087.75 2578.73 1087.14 2580.09 1087.14C2598.78 1087.14 2616.42 1084.05 2635.02 1083.07C2655.36 1082 2675.7 1082.17 2696.05 1081.04C2710.05 1080.26 2724.86 1082.78 2738.77 1081.04C2741.78 1080.66 2745.23 1079.49 2746.91 1076.97C2747.66 1075.84 2745.7 1073.51 2746.91 1072.9C2746.91 1072.9 2757.08 1072.9 2759.12 1072.9" fill="none" fill-rule="evenodd" opacity="1" stroke="#111d9d" stroke-linecap="round" stroke-linejoin="round" stroke-width="10.6299"/>
<path d="M2592.29 1331.27C2604.81 1331.27 2618.42 1326.49 2630.95 1325.17C2664.07 1321.68 2697.34 1319.06 2730.63 1319.06C2744.88 1319.06 2759.12 1319.06 2773.36 1319.06C2779.81 1319.06 2783.53 1319.06 2783.53 1319.06C2783.53 1317.55 2780.82 1317.71 2779.46 1317.03" fill="none" fill-rule="evenodd" opacity="1" stroke="#111d9d" stroke-linecap="round" stroke-linejoin="round" stroke-width="10.6299"/>
<path d="M2624.85 1559.12C2621.45 1559.12 2614.67 1559.12 2614.67 1559.12C2614.67 1559.12 2618.74 1559.12 2620.78 1559.12C2626.2 1559.12 2631.65 1559.61 2637.05 1559.12C2646.6 1558.26 2656 1556.11 2665.53 1555.05C2707.65 1550.38 2749.34 1548.95 2791.67 1548.95C2799.8 1548.95 2808.02 1550.1 2816.08 1548.95C2818.2 1548.65 2822.18 1549.06 2822.18 1546.92C2822.18 1546.92 2815.49 1546.92 2809.98 1546.92" fill="none" fill-rule="evenodd" opacity="1" stroke="#111d9d" stroke-linecap="round" stroke-linejoin="round" stroke-width="10.6299"/>
<path d="M2756.68 586.677C2753.72 586.677 2738.37 592.324 2738.37 588.712C2738.37 587.123 2746.04 585.837 2752.61 584.643C2756.67 583.905 2760.8 583.536 2764.82 582.608C2780.43 579.006 2795.46 575.547 2811.61 574.471C2818.41 574.017 2825.49 574.591 2831.95 572.436" fill="none" fill-rule="evenodd" opacity="1" stroke="#111d9d" stroke-linecap="round" stroke-linejoin="round" stroke-width="10.6299"/>
<path d="M2958.08 1188.86C2963.43 1194.21 2964.93 1200.53 2968.26 1207.17C2968.93 1208.53 2969.92 1209.77 2970.29 1211.24C2970.62 1212.56 2970.29 1216.67 2970.29 1215.31C2970.29 1206.35 2967.17 1173.36 2972.33 1166.48C2975.67 1162.03 2988.72 1161.43 2992.67 1162.41C2995.04 1163.01 2996.74 1165.13 2998.77 1166.48" fill="none" fill-rule="evenodd" opacity="1" stroke="#111d9d" stroke-linecap="round" stroke-linejoin="round" stroke-width="10.6299"/>
<path d="M3010.98 1180.72C3016.87 1183.67 3026.65 1187.48 3033.36 1184.79C3043.73 1180.64 3046.57 1160 3033.36 1158.35C3010.1 1155.44 3004.88 1183.71 3004.88 1201.07C3004.88 1204.46 3003.9 1207.99 3004.88 1211.24C3012.27 1235.89 3039.28 1235.65 3059.8 1235.65" fill="none" fill-rule="evenodd" opacity="1" stroke="#111d9d" stroke-linecap="round" stroke-linejoin="round" stroke-width="10.6299"/>
<path d="M3100.49 1083.07C3105.68 1119.39 3112.54 1155.76 3122.87 1190.9C3125.47 1199.74 3127.77 1208.71 3131.01 1217.34C3131.76 1219.35 3132.25 1221.46 3133.04 1223.45C3133.61 1224.85 3135.08 1229.03 3135.08 1227.52C3135.08 1222.58 3132.21 1218.06 3131.01 1213.27C3123.91 1184.86 3104.22 1164.79 3078.11 1190.9C3075.72 1193.29 3073.81 1196.16 3072.01 1199.03C3070.4 1201.61 3068.6 1204.21 3067.94 1207.17C3067.22 1210.4 3067.71 1222.08 3069.98 1225.48C3075.62 1233.94 3105.58 1239.52 3114.73 1237.69C3123.21 1235.99 3126.48 1232.44 3133.04 1227.52" fill="none" fill-rule="evenodd" opacity="1" stroke="#111d9d" stroke-linecap="round" stroke-linejoin="round" stroke-width="10.6299"/>
<path d="M3151.35 1182.76C3154.29 1200.38 3160.35 1219.92 3179.83 1225.48C3182.64 1226.28 3189.75 1225.28 3192.04 1223.45C3202.42 1215.14 3200.18 1186.11 3200.18 1174.62C3200.18 1170.78 3201.39 1165.66 3198.14 1162.41C3197.07 1161.34 3195.15 1159.31 3194.08 1160.38C3192.64 1161.82 3194.08 1164.45 3194.08 1166.48" fill="none" fill-rule="evenodd" opacity="1" stroke="#111d9d" stroke-linecap="round" stroke-linejoin="round" stroke-width="10.6299"/>
<path d="M3249 1168.52C3254.6 1157.33 3246.17 1159.56 3238.83 1164.45C3228.41 1171.4 3218.17 1179.32 3212.39 1190.9C3202.67 1210.32 3213.06 1229.61 3234.76 1231.58C3253.07 1233.25 3268.66 1228.2 3281.55 1215.31" fill="none" fill-rule="evenodd" opacity="1" stroke="#111d9d" stroke-linecap="round" stroke-linejoin="round" stroke-width="10.6299"/>
<path d="M3275.45 1186.83C3281.69 1188.91 3282.5 1189.89 3289.69 1188.86C3299.32 1187.49 3306.78 1177.74 3299.86 1168.52C3294.29 1161.09 3277.59 1164.64 3271.38 1168.52C3268.51 1170.31 3265.64 1172.22 3263.25 1174.62C3260.17 1177.69 3257.34 1181.07 3255.11 1184.79C3251.84 1190.24 3249 1201.03 3249 1207.17C3249 1242.12 3320.9 1249.2 3340.55 1229.55" fill="none" fill-rule="evenodd" opacity="1" stroke="#111d9d" stroke-linecap="round" stroke-linejoin="round" stroke-width="10.6299"/>
<path d="M3053.7 1312.96C3056.79 1328.42 3057.77 1343.97 3057.77 1359.75C3057.77 1363.75 3057.77 1374.03 3057.77 1376.03C3057.77 1378.06 3055.74 1382.13 3057.77 1382.13C3060.22 1382.13 3060.11 1377.76 3061.84 1376.03C3066.63 1371.23 3071.82 1366.34 3078.11 1363.82C3084.22 1361.38 3102.31 1357.27 3108.63 1361.79C3117.6 1368.2 3121.51 1388.93 3116.77 1398.41C3108.3 1415.35 3067.48 1412.06 3053.7 1406.54C3043.92 1402.63 3028.06 1388.23 3049.63 1388.23" fill="none" fill-rule="evenodd" opacity="1" stroke="#111d9d" stroke-linecap="round" stroke-linejoin="round" stroke-width="10.6299"/>
<path d="M3128.97 1361.79C3140.82 1355.86 3159.49 1389.68 3159.49 1400.44" fill="none" fill-rule="evenodd" opacity="1" stroke="#111d9d" stroke-linecap="round" stroke-linejoin="round" stroke-width="10.6299"/>
<path d="M3194.08 1367.89C3185.21 1381.19 3177.76 1394.81 3169.66 1408.58C3159.49 1425.88 3148.16 1441.41 3139.15 1459.44C3137.27 1463.19 3123.62 1483.85 3135.08 1483.85" fill="none" fill-rule="evenodd" opacity="1" stroke="#111d9d" stroke-linecap="round" stroke-linejoin="round" stroke-width="10.6299"/>
<path d="M3027.25 1532.68C3031.03 1528.9 3034.99 1525.36 3033.36 1524.54C3031.44 1523.58 3029.29 1525.9 3027.25 1526.57C3025.22 1527.25 3023.07 1527.65 3021.15 1528.61C3013.72 1532.32 2993.77 1541.35 2998.77 1553.02C3000.8 1557.76 3011.85 1563.36 3015.05 1565.23C3028.54 1573.1 3038.59 1578.6 3049.63 1589.64C3055.6 1595.6 3064.02 1602.64 3057.77 1612.02C3049.67 1624.17 3028.31 1626.64 3015.05 1628.29C3013.89 1628.44 2993.66 1629.39 2994.7 1626.26C2995.19 1624.79 3002.88 1621.15 3004.88 1620.16" fill="none" fill-rule="evenodd" opacity="1" stroke="#111d9d" stroke-linecap="round" stroke-linejoin="round" stroke-width="10.6299"/>
<path d="M3069.98 1571.33C3069.98 1569.97 3069.98 1565.91 3069.98 1567.26C3069.98 1577.22 3068.45 1588.28 3072.01 1597.78C3076.39 1609.47 3088.08 1615.43 3100.49 1614.05C3121.24 1611.75 3124.68 1595.48 3126.94 1577.43C3127.19 1575.41 3127.7 1573.22 3126.94 1571.33C3124.97 1566.41 3118.46 1559.81 3114.73 1567.26" fill="none" fill-rule="evenodd" opacity="1" stroke="#111d9d" stroke-linecap="round" stroke-linejoin="round" stroke-width="10.6299"/>
<path d="M3143.22 1563.19C3145.25 1563.19 3147.88 1561.75 3149.32 1563.19C3151.3 1565.17 3150.47 1568.68 3151.35 1571.33C3154.01 1579.3 3156.36 1587.92 3159.49 1595.74C3160.62 1598.56 3160.68 1602.92 3163.56 1603.88C3168.8 1605.63 3170.98 1592.15 3171.7 1589.64C3173.16 1584.52 3178.61 1555.22 3187.97 1557.09C3191.87 1557.87 3193.41 1569.57 3194.08 1571.33C3197.87 1581.46 3200.8 1591.51 3204.25 1601.85C3204.64 1603.04 3205.86 1611.48 3210.35 1609.98C3213.82 1608.83 3213.26 1603.28 3214.42 1599.81C3217.33 1591.08 3220.51 1581.54 3224.59 1573.36C3226.16 1570.23 3228.66 1565.23 3228.66 1565.23C3229.56 1565.68 3234.5 1584.37 3234.76 1585.57C3235.51 1588.95 3235.7 1592.46 3236.8 1595.74C3241.75 1610.6 3252.19 1627.32 3267.31 1632.36" fill="none" fill-rule="evenodd" opacity="1" stroke="#111d9d" stroke-linecap="round" stroke-linejoin="round" stroke-width="10.6299"/>
<path d="M2850.26 788.083C2849.58 786.727 2847.55 785.371 2848.23 784.015C2848.83 782.802 2851.34 783.056 2852.3 784.015C2856.74 788.455 2853.29 797.107 2854.33 802.324C2856.65 813.935 2858.4 824.574 2858.4 836.909C2858.4 877.026 2860.43 916.677 2860.43 956.939C2860.43 972.581 2867.88 988.867 2864.5 1005.77C2858.8 1034.27 2860.84 1058.65 2866.54 1087.14C2868.36 1096.27 2864.71 1106.49 2866.54 1115.62C2869.09 1128.38 2877.63 1139.65 2880.78 1152.24C2883.07 1161.42 2883.03 1171.67 2884.85 1180.72C2885.51 1184.05 2884.02 1187.61 2884.85 1190.9C2887.4 1201.11 2890.43 1211.19 2892.98 1221.41C2894.1 1225.88 2891.87 1231.19 2892.98 1235.65C2896.3 1248.9 2893.07 1262.68 2895.02 1276.34C2895.97 1282.98 2897.05 1287.94 2897.05 1294.65C2897.05 1307.86 2896.97 1320.63 2899.09 1333.3C2900.09 1339.31 2904.19 1345.61 2905.19 1351.61C2907.93 1368.04 2910.08 1384.22 2913.33 1400.44C2915.81 1412.84 2911.25 1426.61 2913.33 1439.09C2914.76 1447.7 2918 1456.95 2919.43 1465.54C2923.61 1490.63 2915.83 1517.65 2919.43 1542.85C2920.12 1547.69 2922.73 1552.48 2923.5 1557.09C2925.26 1567.66 2921.98 1579.03 2923.5 1589.64C2924.88 1599.32 2928.03 1608.72 2929.6 1618.12C2932.38 1634.81 2928.36 1652.58 2931.64 1668.98C2933.5 1678.3 2931.64 1689.99 2931.64 1699.5C2931.64 1717.13 2931.64 1734.76 2931.64 1752.39C2931.64 1757.31 2930.64 1765.71 2931.64 1770.7C2932.45 1774.75 2932.99 1778.84 2933.67 1782.91C2934.39 1787.21 2938.92 1790.84 2939.77 1795.12C2941.24 1802.44 2942.64 1810.25 2943.84 1817.49C2945.71 1828.72 2942.23 1840.8 2943.84 1852.08C2945.28 1862.1 2945.88 1870.28 2945.88 1880.56C2945.88 1891.84 2943.68 1906.19 2945.88 1917.18C2948.17 1928.66 2952.36 1940.17 2954.02 1951.76C2955.82 1964.39 2952.21 1977.79 2954.02 1990.42C2954.95 1996.94 2956.05 2001.9 2956.05 2008.73C2956.05 2014.34 2954.95 2021.54 2956.05 2027.04C2956.35 2028.52 2958.08 2031.11 2958.08 2031.11C2958.08 2031.11 2957.12 2028.11 2956.05 2027.04C2953.07 2024.06 2945.51 2022.17 2941.81 2020.93C2929.09 2016.7 2917.03 2012.62 2905.19 2006.69C2899.38 2003.79 2895.16 2004.17 2890.95 1998.56C2886.99 1993.28 2890.27 1995.18 2888.91 1988.38C2888.62 1986.9 2885.81 1985.39 2886.88 1984.31C2887.32 1983.87 2902.86 1984.31 2905.19 1984.31C2924.86 1984.31 2944.52 1984.31 2964.19 1984.31C2967.58 1984.31 2970.97 1984.31 2974.36 1984.31C2979.11 1984.31 2985.24 1980.96 2988.6 1984.31C2989.67 1985.39 2985.74 1985.44 2984.53 1986.35C2981.46 1988.65 2979.11 1991.77 2976.39 1994.49C2963.97 2006.91 2957.24 2011.19 2941.81 2018.9" fill="none" fill-rule="evenodd" opacity="1" stroke="#111d9d" stroke-linecap="round" stroke-linejoin="round" stroke-width="10.6299"/>
<path d="M2805.5 2110.45C2811.75 2129.18 2816.53 2148.38 2821.78 2167.41C2828.18 2190.62 2834.64 2214.71 2838.05 2238.62C2839.36 2247.77 2832.71 2259.39 2846.19 2254.89" fill="none" fill-rule="evenodd" opacity="1" stroke="#111d9d" stroke-linecap="round" stroke-linejoin="round" stroke-width="10.6299"/>
<path d="M2809.57 2098.24C2826.06 2098.24 2841.93 2099.64 2858.4 2100.28C2903.76 2102.02 2949.32 2100.85 2994.7 2102.31C3019.21 2103.1 3043.39 2104.34 3067.94 2104.34C3071.33 2104.34 3074.72 2104.34 3078.11 2104.34C3080.15 2104.34 3082.78 2105.78 3084.22 2104.34C3085.95 2102.62 3080.15 2098.92 3078.11 2100.28C3073.44 2103.4 3084.82 2125.78 3086.25 2130.79C3091.04 2147.54 3093.53 2164.91 3098.46 2181.65C3103.57 2199.04 3110.7 2215.53 3116.77 2232.51C3118.43 2237.16 3119.15 2242.11 3120.84 2246.75C3121.87 2249.6 3124.07 2251.98 3124.91 2254.89C3125.46 2256.85 3124.51 2259 3124.91 2260.99C3125.45 2263.74 3129.59 2268.25 3126.94 2269.13C3125.1 2269.75 3118.72 2265.85 3116.77 2265.06C3110.23 2262.45 3101.35 2261.69 3094.39 2260.99C3065.4 2258.1 3036.09 2255.02 3006.91 2252.86C2985.85 2251.3 2964.92 2248.16 2943.84 2246.75C2925.57 2245.54 2907.22 2246.75 2888.91 2246.75C2877.39 2246.75 2865.81 2245.71 2854.33 2246.75C2845.83 2247.53 2840.57 2250.94 2833.99 2254.89C2828.56 2258.14 2821.63 2256.93 2815.68 2256.93" fill="none" fill-rule="evenodd" opacity="1" stroke="#111d9d" stroke-linecap="round" stroke-linejoin="round" stroke-width="10.6299"/>
<path d="M2815.68 2285.41C2804.65 2282.65 2794.01 2283.23 2783.13 2285.41C2778.23 2286.39 2774.93 2291.45 2779.06 2295.58C2791.05 2307.57 2811.89 2304 2823.81 2315.92C2829.27 2321.38 2822.72 2325.38 2817.71 2326.1C2801.73 2328.38 2785.02 2334.23 2768.88 2334.23" fill="none" fill-rule="evenodd" opacity="1" stroke="#111d9d" stroke-linecap="round" stroke-linejoin="round" stroke-width="10.6299"/>
<path d="M2842.12 2297.61C2845.37 2307.36 2844.63 2318.24 2854.33 2324.06C2871.41 2334.31 2892.87 2321.79 2882.81 2301.68" fill="none" fill-rule="evenodd" opacity="1" stroke="#111d9d" stroke-linecap="round" stroke-linejoin="round" stroke-width="10.6299"/>
<path d="M2903.16 2305.75C2912.09 2310.22 2910.36 2325.34 2913.33 2334.23C2914.01 2336.27 2913.58 2339.15 2915.36 2340.34C2918.18 2342.22 2920.39 2335.42 2921.46 2332.2C2923.6 2325.8 2927.5 2320.19 2929.6 2313.89C2930.49 2311.24 2929.14 2307 2931.64 2305.75C2933.82 2304.66 2936.01 2308.09 2937.74 2309.82C2941.65 2313.73 2942.47 2323.33 2943.84 2328.13C2944.43 2330.19 2943.73 2334.23 2945.88 2334.23C2948.86 2334.23 2959.24 2306.9 2964.19 2311.85C2965.15 2312.81 2963.86 2314.61 2964.19 2315.92C2966.4 2324.76 2972.19 2346.37 2980.46 2350.51" fill="none" fill-rule="evenodd" opacity="1" stroke="#111d9d" stroke-linecap="round" stroke-linejoin="round" stroke-width="10.6299"/>
<path d="M2988.6 2336.27C3002.16 2336.27 3015.73 2336.27 3029.29 2336.27" fill="none" fill-rule="evenodd" opacity="1" stroke="#111d9d" stroke-linecap="round" stroke-linejoin="round" stroke-width="10.6299"/>
<path d="M3090.32 2311.85C3095.9 2300.69 3085.13 2287.62 3074.05 2285.41C3065.02 2283.6 3055.85 2292.67 3051.67 2299.65C3049.6 2303.1 3047.53 2307.64 3049.63 2311.85C3050.45 2313.49 3057.61 2316.86 3059.8 2317.96C3069.51 2322.81 3084.81 2325.99 3092.36 2315.92C3094.63 2312.89 3100.09 2295.58 3094.39 2295.58C3091.36 2295.58 3091.06 2300.77 3090.32 2303.72C3088.11 2312.54 3086.22 2321.16 3084.22 2330.16C3082.68 2337.08 3079.98 2343.68 3078.11 2350.51C3076.14 2357.73 3076.83 2365.43 3076.08 2372.89C3074.52 2388.52 3069.03 2396.51 3086.25 2403.4C3090.98 2405.29 3093.22 2407.47 3098.46 2407.47" fill="none" fill-rule="evenodd" opacity="1" stroke="#111d9d" stroke-linecap="round" stroke-linejoin="round" stroke-width="10.6299"/>
<path d="M3086.25 2309.82C3084.22 2309.82 3081.97 2308.91 3080.15 2309.82C3076.14 2311.83 3078.11 2322.87 3078.11 2326.1C3078.11 2334.6 3076.12 2348.33 3074.05 2356.61C3073.48 2358.88 3068.88 2373.28 3069.98 2374.92C3077.16 2385.7 3096.88 2376.35 3102.53 2368.82C3106.49 2363.53 3107.75 2356.34 3110.66 2350.51" fill="none" fill-rule="evenodd" opacity="1" stroke="#111d9d" stroke-linecap="round" stroke-linejoin="round" stroke-width="10.6299"/>
</g>
</svg>
